G04*
G04 #@! TF.GenerationSoftware,Altium Limited,Altium Designer,22.4.2 (48)*
G04*
G04 Layer_Physical_Order=1*
G04 Layer_Color=255*
%FSLAX44Y44*%
%MOMM*%
G71*
G04*
G04 #@! TF.SameCoordinates,1039030C-265D-4712-A70C-599C82CECBD2*
G04*
G04*
G04 #@! TF.FilePolarity,Positive*
G04*
G01*
G75*
%ADD10C,2.0000*%
%ADD11C,1.6000*%
%ADD12R,1.6000X1.6000*%
%ADD13R,1.9500X1.9500*%
%ADD14C,1.9500*%
%ADD15C,1.4000*%
%ADD16R,1.4000X1.4000*%
%ADD17C,1.2700*%
G36*
X1281000Y1058000D02*
Y551000D01*
X751000D01*
X750000Y552000D01*
Y1062000D01*
X753000D01*
X770000Y1079000D01*
Y1080000D01*
X1259000D01*
X1281000Y1058000D01*
D02*
G37*
%LPC*%
G36*
X885540Y1043540D02*
X877270D01*
Y1035270D01*
X885540D01*
Y1043540D01*
D02*
G37*
G36*
X874730D02*
X866460D01*
Y1035270D01*
X874730D01*
Y1043540D01*
D02*
G37*
G36*
X1041540Y1043540D02*
X1033270D01*
Y1035270D01*
X1041540D01*
Y1043540D01*
D02*
G37*
G36*
X1030730D02*
X1022460D01*
Y1035270D01*
X1030730D01*
Y1043540D01*
D02*
G37*
G36*
X963540D02*
X955270D01*
Y1035270D01*
X963540D01*
Y1043540D01*
D02*
G37*
G36*
X952730D02*
X944460D01*
Y1035270D01*
X952730D01*
Y1043540D01*
D02*
G37*
G36*
X1119270Y1043270D02*
X1111000D01*
Y1035000D01*
X1119270D01*
Y1043270D01*
D02*
G37*
G36*
X1108460D02*
X1100190D01*
Y1035000D01*
X1108460D01*
Y1043270D01*
D02*
G37*
G36*
X927256Y1043540D02*
X924744D01*
X922318Y1042890D01*
X920142Y1041634D01*
X918366Y1039858D01*
X917110Y1037682D01*
X916460Y1035256D01*
Y1032744D01*
X917110Y1030318D01*
X918366Y1028142D01*
X920142Y1026366D01*
X922318Y1025110D01*
X924744Y1024460D01*
X927256D01*
X929682Y1025110D01*
X931858Y1026366D01*
X933634Y1028142D01*
X934890Y1030318D01*
X935540Y1032744D01*
Y1035256D01*
X934890Y1037682D01*
X933634Y1039858D01*
X931858Y1041634D01*
X929682Y1042890D01*
X927256Y1043540D01*
D02*
G37*
G36*
X885540Y1032730D02*
X877270D01*
Y1024460D01*
X885540D01*
Y1032730D01*
D02*
G37*
G36*
X874730D02*
X866460D01*
Y1024460D01*
X874730D01*
Y1032730D01*
D02*
G37*
G36*
X1083256Y1043540D02*
X1080744D01*
X1078318Y1042890D01*
X1076142Y1041634D01*
X1074366Y1039858D01*
X1073110Y1037682D01*
X1072460Y1035256D01*
Y1032744D01*
X1073110Y1030318D01*
X1074366Y1028142D01*
X1076142Y1026366D01*
X1078318Y1025110D01*
X1080744Y1024460D01*
X1083256D01*
X1085682Y1025110D01*
X1087858Y1026366D01*
X1089634Y1028142D01*
X1090890Y1030318D01*
X1091540Y1032744D01*
Y1035256D01*
X1090890Y1037682D01*
X1089634Y1039858D01*
X1087858Y1041634D01*
X1085682Y1042890D01*
X1083256Y1043540D01*
D02*
G37*
G36*
X1041540Y1032730D02*
X1033270D01*
Y1024460D01*
X1041540D01*
Y1032730D01*
D02*
G37*
G36*
X1030730D02*
X1022460D01*
Y1024460D01*
X1030730D01*
Y1032730D01*
D02*
G37*
G36*
X1005256Y1043540D02*
X1002744D01*
X1000318Y1042890D01*
X998142Y1041634D01*
X996366Y1039858D01*
X995110Y1037682D01*
X994460Y1035256D01*
Y1032744D01*
X995110Y1030318D01*
X996366Y1028142D01*
X998142Y1026366D01*
X1000318Y1025110D01*
X1002744Y1024460D01*
X1005256D01*
X1007682Y1025110D01*
X1009858Y1026366D01*
X1011634Y1028142D01*
X1012890Y1030318D01*
X1013540Y1032744D01*
Y1035256D01*
X1012890Y1037682D01*
X1011634Y1039858D01*
X1009858Y1041634D01*
X1007682Y1042890D01*
X1005256Y1043540D01*
D02*
G37*
G36*
X963540Y1032730D02*
X955270D01*
Y1024460D01*
X963540D01*
Y1032730D01*
D02*
G37*
G36*
X952730D02*
X944460D01*
Y1024460D01*
X952730D01*
Y1032730D01*
D02*
G37*
G36*
X1160986Y1043270D02*
X1158475D01*
X1156048Y1042620D01*
X1153873Y1041364D01*
X1152096Y1039588D01*
X1150841Y1037412D01*
X1150190Y1034986D01*
Y1032474D01*
X1150841Y1030048D01*
X1152096Y1027872D01*
X1153873Y1026096D01*
X1156048Y1024840D01*
X1158475Y1024190D01*
X1160986D01*
X1163413Y1024840D01*
X1165588Y1026096D01*
X1167364Y1027872D01*
X1168620Y1030048D01*
X1169270Y1032474D01*
Y1034986D01*
X1168620Y1037412D01*
X1167364Y1039588D01*
X1165588Y1041364D01*
X1163413Y1042620D01*
X1160986Y1043270D01*
D02*
G37*
G36*
X1119270Y1032460D02*
X1111000D01*
Y1024190D01*
X1119270D01*
Y1032460D01*
D02*
G37*
G36*
X1108460D02*
X1100190D01*
Y1024190D01*
X1108460D01*
Y1032460D01*
D02*
G37*
G36*
X1265140Y1035340D02*
X1244060D01*
Y1014260D01*
X1265140D01*
Y1035340D01*
D02*
G37*
G36*
X776788D02*
X774012D01*
X771332Y1034622D01*
X768928Y1033234D01*
X766966Y1031272D01*
X765578Y1028868D01*
X764860Y1026188D01*
Y1023412D01*
X765578Y1020732D01*
X766966Y1018328D01*
X768928Y1016366D01*
X771332Y1014978D01*
X774012Y1014260D01*
X776788D01*
X779468Y1014978D01*
X781872Y1016366D01*
X783834Y1018328D01*
X785222Y1020732D01*
X785940Y1023412D01*
Y1026188D01*
X785222Y1028868D01*
X783834Y1031272D01*
X781872Y1033234D01*
X779468Y1034622D01*
X776788Y1035340D01*
D02*
G37*
G36*
X1255988Y1009940D02*
X1253212D01*
X1250532Y1009222D01*
X1248128Y1007834D01*
X1246166Y1005872D01*
X1244778Y1003468D01*
X1244060Y1000788D01*
Y998012D01*
X1244778Y995332D01*
X1246166Y992928D01*
X1248128Y990966D01*
X1250532Y989578D01*
X1253212Y988860D01*
X1255988D01*
X1258668Y989578D01*
X1261072Y990966D01*
X1263034Y992928D01*
X1264422Y995332D01*
X1265140Y998012D01*
Y1000788D01*
X1264422Y1003468D01*
X1263034Y1005872D01*
X1261072Y1007834D01*
X1258668Y1009222D01*
X1255988Y1009940D01*
D02*
G37*
G36*
X776788D02*
X774012D01*
X771332Y1009222D01*
X768928Y1007834D01*
X766966Y1005872D01*
X765578Y1003468D01*
X764860Y1000788D01*
Y998012D01*
X765578Y995332D01*
X766966Y992928D01*
X768928Y990966D01*
X771332Y989578D01*
X774012Y988860D01*
X776788D01*
X779468Y989578D01*
X781872Y990966D01*
X783834Y992928D01*
X785222Y995332D01*
X785940Y998012D01*
Y1000788D01*
X785222Y1003468D01*
X783834Y1005872D01*
X781872Y1007834D01*
X779468Y1009222D01*
X776788Y1009940D01*
D02*
G37*
G36*
X1255988Y984540D02*
X1253212D01*
X1250532Y983822D01*
X1248128Y982434D01*
X1246166Y980472D01*
X1244778Y978068D01*
X1244060Y975388D01*
Y972612D01*
X1244778Y969932D01*
X1246166Y967528D01*
X1248128Y965566D01*
X1250532Y964178D01*
X1253212Y963460D01*
X1255988D01*
X1258668Y964178D01*
X1261072Y965566D01*
X1263034Y967528D01*
X1264422Y969932D01*
X1265140Y972612D01*
Y975388D01*
X1264422Y978068D01*
X1263034Y980472D01*
X1261072Y982434D01*
X1258668Y983822D01*
X1255988Y984540D01*
D02*
G37*
G36*
X776788D02*
X774012D01*
X771332Y983822D01*
X768928Y982434D01*
X766966Y980472D01*
X765578Y978068D01*
X764860Y975388D01*
Y972612D01*
X765578Y969932D01*
X766966Y967528D01*
X768928Y965566D01*
X771332Y964178D01*
X774012Y963460D01*
X776788D01*
X779468Y964178D01*
X781872Y965566D01*
X783834Y967528D01*
X785222Y969932D01*
X785940Y972612D01*
Y975388D01*
X785222Y978068D01*
X783834Y980472D01*
X781872Y982434D01*
X779468Y983822D01*
X776788Y984540D01*
D02*
G37*
G36*
X1255988Y959140D02*
X1253212D01*
X1250532Y958422D01*
X1248128Y957034D01*
X1246166Y955072D01*
X1244778Y952668D01*
X1244060Y949988D01*
Y947212D01*
X1244778Y944532D01*
X1246166Y942128D01*
X1248128Y940166D01*
X1250532Y938778D01*
X1253212Y938060D01*
X1255988D01*
X1258668Y938778D01*
X1261072Y940166D01*
X1263034Y942128D01*
X1264422Y944532D01*
X1265140Y947212D01*
Y949988D01*
X1264422Y952668D01*
X1263034Y955072D01*
X1261072Y957034D01*
X1258668Y958422D01*
X1255988Y959140D01*
D02*
G37*
G36*
X776788D02*
X774012D01*
X771332Y958422D01*
X768928Y957034D01*
X766966Y955072D01*
X765578Y952668D01*
X764860Y949988D01*
Y947212D01*
X765578Y944532D01*
X766966Y942128D01*
X768928Y940166D01*
X771332Y938778D01*
X774012Y938060D01*
X776788D01*
X779468Y938778D01*
X781872Y940166D01*
X783834Y942128D01*
X785222Y944532D01*
X785940Y947212D01*
Y949988D01*
X785222Y952668D01*
X783834Y955072D01*
X781872Y957034D01*
X779468Y958422D01*
X776788Y959140D01*
D02*
G37*
G36*
X1255988Y933740D02*
X1253212D01*
X1250532Y933022D01*
X1248128Y931634D01*
X1246166Y929672D01*
X1244778Y927268D01*
X1244060Y924588D01*
Y921812D01*
X1244778Y919132D01*
X1246166Y916728D01*
X1248128Y914766D01*
X1250532Y913378D01*
X1253212Y912660D01*
X1255988D01*
X1258668Y913378D01*
X1261072Y914766D01*
X1263034Y916728D01*
X1264422Y919132D01*
X1265140Y921812D01*
Y924588D01*
X1264422Y927268D01*
X1263034Y929672D01*
X1261072Y931634D01*
X1258668Y933022D01*
X1255988Y933740D01*
D02*
G37*
G36*
X776788D02*
X774012D01*
X771332Y933022D01*
X768928Y931634D01*
X766966Y929672D01*
X765578Y927268D01*
X764860Y924588D01*
Y921812D01*
X765578Y919132D01*
X766966Y916728D01*
X768928Y914766D01*
X771332Y913378D01*
X774012Y912660D01*
X776788D01*
X779468Y913378D01*
X781872Y914766D01*
X783834Y916728D01*
X785222Y919132D01*
X785940Y921812D01*
Y924588D01*
X785222Y927268D01*
X783834Y929672D01*
X781872Y931634D01*
X779468Y933022D01*
X776788Y933740D01*
D02*
G37*
G36*
X1013388Y914140D02*
X1010612D01*
X1007932Y913422D01*
X1005528Y912034D01*
X1003566Y910072D01*
X1002178Y907668D01*
X1001460Y904988D01*
Y902212D01*
X1002178Y899532D01*
X1003566Y897128D01*
X1005528Y895166D01*
X1007932Y893778D01*
X1010612Y893060D01*
X1013388D01*
X1016068Y893778D01*
X1018472Y895166D01*
X1020434Y897128D01*
X1021822Y899532D01*
X1022540Y902212D01*
Y904988D01*
X1021822Y907668D01*
X1020434Y910072D01*
X1018472Y912034D01*
X1016068Y913422D01*
X1013388Y914140D01*
D02*
G37*
G36*
X1255988Y908340D02*
X1253212D01*
X1250532Y907622D01*
X1248128Y906234D01*
X1246166Y904272D01*
X1244778Y901868D01*
X1244060Y899188D01*
Y896412D01*
X1244778Y893732D01*
X1246166Y891328D01*
X1248128Y889366D01*
X1250532Y887978D01*
X1253212Y887260D01*
X1255988D01*
X1258668Y887978D01*
X1261072Y889366D01*
X1263034Y891328D01*
X1264422Y893732D01*
X1265140Y896412D01*
Y899188D01*
X1264422Y901868D01*
X1263034Y904272D01*
X1261072Y906234D01*
X1258668Y907622D01*
X1255988Y908340D01*
D02*
G37*
G36*
X776788D02*
X774012D01*
X771332Y907622D01*
X768928Y906234D01*
X766966Y904272D01*
X765578Y901868D01*
X764860Y899188D01*
Y896412D01*
X765578Y893732D01*
X766966Y891328D01*
X768928Y889366D01*
X771332Y887978D01*
X774012Y887260D01*
X776788D01*
X779468Y887978D01*
X781872Y889366D01*
X783834Y891328D01*
X785222Y893732D01*
X785940Y896412D01*
Y899188D01*
X785222Y901868D01*
X783834Y904272D01*
X781872Y906234D01*
X779468Y907622D01*
X776788Y908340D01*
D02*
G37*
G36*
X1147387Y888740D02*
X1147270D01*
Y879470D01*
X1156540D01*
Y879588D01*
X1155821Y882268D01*
X1154434Y884672D01*
X1152471Y886634D01*
X1150068Y888022D01*
X1147387Y888740D01*
D02*
G37*
G36*
X1144730D02*
X1144612D01*
X1141931Y888022D01*
X1139528Y886634D01*
X1137566Y884672D01*
X1136178Y882268D01*
X1135460Y879588D01*
Y879470D01*
X1144730D01*
Y888740D01*
D02*
G37*
G36*
X1156540Y876930D02*
X1147270D01*
Y867660D01*
X1147387D01*
X1150068Y868378D01*
X1152471Y869766D01*
X1154434Y871728D01*
X1155821Y874132D01*
X1156540Y876812D01*
Y876930D01*
D02*
G37*
G36*
X1144730D02*
X1135460D01*
Y876812D01*
X1136178Y874132D01*
X1137566Y871728D01*
X1139528Y869766D01*
X1141931Y868378D01*
X1144612Y867660D01*
X1144730D01*
Y876930D01*
D02*
G37*
G36*
X1013388Y888740D02*
X1010612D01*
X1007932Y888022D01*
X1005528Y886634D01*
X1003566Y884672D01*
X1002178Y882268D01*
X1001460Y879588D01*
Y876812D01*
X1002178Y874132D01*
X1003566Y871728D01*
X1005528Y869766D01*
X1007932Y868378D01*
X1010612Y867660D01*
X1013388D01*
X1016068Y868378D01*
X1018472Y869766D01*
X1020434Y871728D01*
X1021822Y874132D01*
X1022540Y876812D01*
Y879588D01*
X1021822Y882268D01*
X1020434Y884672D01*
X1018472Y886634D01*
X1016068Y888022D01*
X1013388Y888740D01*
D02*
G37*
G36*
X776788Y882940D02*
X774012D01*
X771332Y882222D01*
X768928Y880834D01*
X766966Y878872D01*
X765578Y876468D01*
X764860Y873788D01*
Y871012D01*
X765578Y868332D01*
X766966Y865928D01*
X768928Y863966D01*
X771332Y862578D01*
X774012Y861860D01*
X776788D01*
X779468Y862578D01*
X781872Y863966D01*
X783834Y865928D01*
X785222Y868332D01*
X785940Y871012D01*
Y873788D01*
X785222Y876468D01*
X783834Y878872D01*
X781872Y880834D01*
X779468Y882222D01*
X776788Y882940D01*
D02*
G37*
G36*
X1013388Y863340D02*
X1010612D01*
X1007932Y862622D01*
X1005528Y861234D01*
X1003566Y859272D01*
X1002178Y856868D01*
X1001460Y854188D01*
Y851412D01*
X1002178Y848732D01*
X1003566Y846328D01*
X1005528Y844366D01*
X1007932Y842978D01*
X1010612Y842260D01*
X1013388D01*
X1016068Y842978D01*
X1018472Y844366D01*
X1020434Y846328D01*
X1021822Y848732D01*
X1022540Y851412D01*
Y854188D01*
X1021822Y856868D01*
X1020434Y859272D01*
X1018472Y861234D01*
X1016068Y862622D01*
X1013388Y863340D01*
D02*
G37*
G36*
X1265140Y861140D02*
X1244060D01*
Y840060D01*
X1265140D01*
Y861140D01*
D02*
G37*
G36*
X785940Y857540D02*
X764860D01*
Y836460D01*
X785940D01*
Y857540D01*
D02*
G37*
G36*
X1255988Y835740D02*
X1255870D01*
Y826470D01*
X1265140D01*
Y826588D01*
X1264422Y829268D01*
X1263034Y831672D01*
X1261072Y833634D01*
X1258668Y835022D01*
X1255988Y835740D01*
D02*
G37*
G36*
X1253330D02*
X1253212D01*
X1250532Y835022D01*
X1248128Y833634D01*
X1246166Y831672D01*
X1244778Y829268D01*
X1244060Y826588D01*
Y826470D01*
X1253330D01*
Y835740D01*
D02*
G37*
G36*
X1013388Y837940D02*
X1010612D01*
X1007932Y837222D01*
X1005528Y835834D01*
X1003566Y833872D01*
X1002178Y831468D01*
X1001460Y828788D01*
Y826012D01*
X1002178Y823332D01*
X1003566Y820928D01*
X1005528Y818966D01*
X1007932Y817578D01*
X1010612Y816860D01*
X1013388D01*
X1016068Y817578D01*
X1018472Y818966D01*
X1020434Y820928D01*
X1021822Y823332D01*
X1022540Y826012D01*
Y828788D01*
X1021822Y831468D01*
X1020434Y833872D01*
X1018472Y835834D01*
X1016068Y837222D01*
X1013388Y837940D01*
D02*
G37*
G36*
X1265140Y823930D02*
X1255870D01*
Y814660D01*
X1255988D01*
X1258668Y815378D01*
X1261072Y816766D01*
X1263034Y818728D01*
X1264422Y821132D01*
X1265140Y823812D01*
Y823930D01*
D02*
G37*
G36*
X1253330D02*
X1244060D01*
Y823812D01*
X1244778Y821132D01*
X1246166Y818728D01*
X1248128Y816766D01*
X1250532Y815378D01*
X1253212Y814660D01*
X1253330D01*
Y823930D01*
D02*
G37*
G36*
X1255988Y810340D02*
X1255870D01*
Y801070D01*
X1265140D01*
Y801188D01*
X1264422Y803868D01*
X1263034Y806272D01*
X1261072Y808234D01*
X1258668Y809622D01*
X1255988Y810340D01*
D02*
G37*
G36*
X1253330D02*
X1253212D01*
X1250532Y809622D01*
X1248128Y808234D01*
X1246166Y806272D01*
X1244778Y803868D01*
X1244060Y801188D01*
Y801070D01*
X1253330D01*
Y810340D01*
D02*
G37*
G36*
X776788Y816340D02*
X774012D01*
X771332Y815622D01*
X768928Y814234D01*
X766966Y812272D01*
X765578Y809868D01*
X764860Y807188D01*
Y804412D01*
X765578Y801732D01*
X766966Y799328D01*
X768928Y797366D01*
X771332Y795978D01*
X774012Y795260D01*
X776788D01*
X779468Y795978D01*
X781872Y797366D01*
X783834Y799328D01*
X785222Y801732D01*
X785940Y804412D01*
Y807188D01*
X785222Y809868D01*
X783834Y812272D01*
X781872Y814234D01*
X779468Y815622D01*
X776788Y816340D01*
D02*
G37*
G36*
X1013388Y812540D02*
X1010612D01*
X1007932Y811822D01*
X1005528Y810434D01*
X1003566Y808472D01*
X1002178Y806068D01*
X1001460Y803388D01*
Y800612D01*
X1002178Y797932D01*
X1003566Y795528D01*
X1005528Y793566D01*
X1007932Y792178D01*
X1010612Y791460D01*
X1013388D01*
X1016068Y792178D01*
X1018472Y793566D01*
X1020434Y795528D01*
X1021822Y797932D01*
X1022540Y800612D01*
Y803388D01*
X1021822Y806068D01*
X1020434Y808472D01*
X1018472Y810434D01*
X1016068Y811822D01*
X1013388Y812540D01*
D02*
G37*
G36*
X1265140Y798530D02*
X1255870D01*
Y789260D01*
X1255988D01*
X1258668Y789978D01*
X1261072Y791366D01*
X1263034Y793328D01*
X1264422Y795732D01*
X1265140Y798412D01*
Y798530D01*
D02*
G37*
G36*
X1253330D02*
X1244060D01*
Y798412D01*
X1244778Y795732D01*
X1246166Y793328D01*
X1248128Y791366D01*
X1250532Y789978D01*
X1253212Y789260D01*
X1253330D01*
Y798530D01*
D02*
G37*
G36*
X1013388Y787140D02*
X1013270D01*
Y777870D01*
X1022540D01*
Y777988D01*
X1021822Y780668D01*
X1020434Y783072D01*
X1018472Y785034D01*
X1016068Y786422D01*
X1013388Y787140D01*
D02*
G37*
G36*
X1010730D02*
X1010612D01*
X1007932Y786422D01*
X1005528Y785034D01*
X1003566Y783072D01*
X1002178Y780668D01*
X1001460Y777988D01*
Y777870D01*
X1010730D01*
Y787140D01*
D02*
G37*
G36*
X776788Y790940D02*
X774012D01*
X771332Y790222D01*
X768928Y788834D01*
X766966Y786872D01*
X765578Y784468D01*
X764860Y781788D01*
Y779012D01*
X765578Y776332D01*
X766966Y773928D01*
X768928Y771966D01*
X771332Y770578D01*
X774012Y769860D01*
X776788D01*
X779468Y770578D01*
X781872Y771966D01*
X783834Y773928D01*
X785222Y776332D01*
X785940Y779012D01*
Y781788D01*
X785222Y784468D01*
X783834Y786872D01*
X781872Y788834D01*
X779468Y790222D01*
X776788Y790940D01*
D02*
G37*
G36*
X1022540Y775330D02*
X1013270D01*
Y766060D01*
X1013388D01*
X1016068Y766778D01*
X1018472Y768166D01*
X1020434Y770128D01*
X1021822Y772532D01*
X1022540Y775212D01*
Y775330D01*
D02*
G37*
G36*
X1010730D02*
X1001460D01*
Y775212D01*
X1002178Y772532D01*
X1003566Y770128D01*
X1005528Y768166D01*
X1007932Y766778D01*
X1010612Y766060D01*
X1010730D01*
Y775330D01*
D02*
G37*
G36*
X901000Y1046648D02*
X897726Y1046217D01*
X894676Y1044954D01*
X892056Y1042944D01*
X890046Y1040324D01*
X888782Y1037274D01*
X888351Y1034000D01*
Y821239D01*
X871556Y804444D01*
X869546Y801824D01*
X868283Y798774D01*
X867852Y795500D01*
X867852Y795500D01*
Y600000D01*
X867852Y600000D01*
X868210Y597279D01*
Y587710D01*
X874903D01*
X896556Y566056D01*
X896557Y566056D01*
X899176Y564046D01*
X902227Y562783D01*
X905500Y562352D01*
X905500Y562352D01*
X1205000D01*
X1205000Y562352D01*
X1208274Y562783D01*
X1211324Y564046D01*
X1213944Y566056D01*
X1226944Y579056D01*
X1228954Y581676D01*
X1230217Y584726D01*
X1230648Y588000D01*
X1230648Y588000D01*
Y705000D01*
X1230648Y705000D01*
X1230217Y708274D01*
X1228954Y711324D01*
X1226944Y713944D01*
X1226944Y713944D01*
X1180744Y760144D01*
X1178124Y762154D01*
X1176849Y762682D01*
X1177102Y763952D01*
X1193400D01*
X1193400Y763952D01*
X1196674Y764383D01*
X1199724Y765646D01*
X1202344Y767656D01*
X1210944Y776256D01*
X1212954Y778876D01*
X1214217Y781926D01*
X1214648Y785200D01*
X1214217Y788474D01*
X1212954Y791524D01*
X1210944Y794144D01*
X1208324Y796154D01*
X1206192Y797037D01*
Y798412D01*
X1207724Y799046D01*
X1210344Y801056D01*
X1210944Y801656D01*
X1212954Y804276D01*
X1214217Y807326D01*
X1214648Y810600D01*
X1214217Y813874D01*
X1212954Y816924D01*
X1210944Y819544D01*
X1208324Y821554D01*
X1205767Y822613D01*
Y823987D01*
X1208324Y825046D01*
X1210944Y827056D01*
X1212954Y829676D01*
X1214217Y832726D01*
X1214648Y836000D01*
X1214217Y839274D01*
X1212954Y842324D01*
X1210944Y844944D01*
X1208324Y846954D01*
X1205767Y848013D01*
Y849387D01*
X1208324Y850446D01*
X1208863Y850860D01*
X1212540D01*
Y854537D01*
X1212954Y855076D01*
X1214217Y858126D01*
X1214648Y861400D01*
X1214217Y864674D01*
X1212954Y867724D01*
X1212540Y868263D01*
Y871940D01*
X1208863D01*
X1208324Y872354D01*
X1205274Y873617D01*
X1202000Y874048D01*
X1180573D01*
X1180573Y874048D01*
X1177299Y873617D01*
X1174249Y872354D01*
X1171629Y870344D01*
X1171629Y870343D01*
X1166734Y865448D01*
X1146000D01*
X1142726Y865017D01*
X1139676Y863754D01*
X1137056Y861744D01*
X1135046Y859124D01*
X1133783Y856074D01*
X1133352Y852800D01*
X1133783Y849526D01*
X1135046Y846476D01*
X1137056Y843856D01*
X1139676Y841846D01*
X1142232Y840787D01*
Y839413D01*
X1139676Y838354D01*
X1137056Y836344D01*
X1135046Y833724D01*
X1133783Y830674D01*
X1133352Y827400D01*
X1133783Y824126D01*
X1135046Y821076D01*
X1137056Y818456D01*
X1139676Y816446D01*
X1142232Y815387D01*
Y814013D01*
X1139676Y812954D01*
X1137056Y810944D01*
X1135046Y808324D01*
X1133783Y805274D01*
X1133352Y802000D01*
X1133783Y798726D01*
X1135046Y795676D01*
X1137056Y793056D01*
X1139676Y791046D01*
X1142232Y789987D01*
Y788613D01*
X1139676Y787554D01*
X1137056Y785544D01*
X1135046Y782924D01*
X1133783Y779874D01*
X1133352Y776600D01*
X1133783Y773326D01*
X1135046Y770276D01*
X1137056Y767656D01*
X1139676Y765646D01*
X1142232Y764587D01*
Y763213D01*
X1139676Y762154D01*
X1137056Y760144D01*
X1135046Y757524D01*
X1133783Y754474D01*
X1133352Y751200D01*
X1133783Y747926D01*
X1135046Y744876D01*
X1137056Y742256D01*
X1139676Y740246D01*
X1142726Y738983D01*
X1146000Y738552D01*
X1166561D01*
X1205352Y699761D01*
Y593239D01*
X1199761Y587648D01*
X1185061D01*
X1184894Y588918D01*
X1187244Y589548D01*
X1190046Y591166D01*
X1192334Y593454D01*
X1193952Y596256D01*
X1194790Y599382D01*
Y599730D01*
X1170210D01*
Y599382D01*
X1171048Y596256D01*
X1172665Y593454D01*
X1174954Y591166D01*
X1177756Y589548D01*
X1180106Y588918D01*
X1179939Y587648D01*
X1160292D01*
X1159790Y588710D01*
X1159790Y588918D01*
Y598279D01*
X1160148Y601000D01*
X1159790Y603721D01*
Y613290D01*
X1153097D01*
X1118648Y647739D01*
Y868761D01*
X1140839Y890952D01*
X1146000D01*
X1149273Y891383D01*
X1152324Y892646D01*
X1154943Y894656D01*
X1156953Y897276D01*
X1158217Y900326D01*
X1158648Y903600D01*
X1158217Y906874D01*
X1156953Y909924D01*
X1154943Y912544D01*
X1152324Y914554D01*
X1149273Y915817D01*
X1146000Y916248D01*
X1135600D01*
X1132326Y915817D01*
X1129276Y914554D01*
X1126656Y912544D01*
X1126656Y912543D01*
X1097056Y882944D01*
X1095046Y880324D01*
X1093783Y877274D01*
X1093352Y874000D01*
X1093352Y874000D01*
Y642500D01*
X1093352Y642500D01*
X1093783Y639226D01*
X1095046Y636176D01*
X1097056Y633556D01*
X1135210Y595403D01*
Y588918D01*
X1135210Y588710D01*
X1134708Y587648D01*
X1052062D01*
X1051894Y588918D01*
X1054244Y589548D01*
X1057047Y591166D01*
X1059335Y593454D01*
X1060953Y596256D01*
X1061790Y599382D01*
Y599730D01*
X1037210D01*
Y599382D01*
X1038048Y596256D01*
X1039666Y593454D01*
X1041954Y591166D01*
X1044756Y589548D01*
X1047106Y588918D01*
X1046939Y587648D01*
X1027292D01*
X1026790Y588710D01*
X1026790Y588918D01*
Y595403D01*
X1036587Y605200D01*
X1037726Y604543D01*
X1037210Y602618D01*
Y602270D01*
X1048230D01*
Y613290D01*
X1047882D01*
X1045958Y612775D01*
X1045300Y613913D01*
X1080674Y649287D01*
X1080674Y649287D01*
X1082684Y651906D01*
X1083948Y654957D01*
X1084378Y658230D01*
Y932891D01*
X1084379Y932891D01*
X1084309Y933421D01*
X1143674Y992786D01*
X1143674Y992787D01*
X1145684Y995406D01*
X1146947Y998457D01*
X1147378Y1001730D01*
X1147378Y1001730D01*
Y1033730D01*
X1146947Y1037004D01*
X1145684Y1040054D01*
X1143674Y1042674D01*
X1141054Y1044684D01*
X1138004Y1045947D01*
X1134730Y1046378D01*
X1131457Y1045947D01*
X1128406Y1044684D01*
X1125787Y1042674D01*
X1123776Y1040054D01*
X1122513Y1037004D01*
X1122082Y1033730D01*
Y1006969D01*
X1070822Y955709D01*
X1069648Y956195D01*
Y1034000D01*
X1069217Y1037274D01*
X1067954Y1040324D01*
X1065944Y1042944D01*
X1063324Y1044954D01*
X1060274Y1046217D01*
X1057000Y1046648D01*
X1053727Y1046217D01*
X1050676Y1044954D01*
X1048057Y1042944D01*
X1046047Y1040324D01*
X1044783Y1037274D01*
X1044352Y1034000D01*
Y979816D01*
X1043179Y979330D01*
X991648Y1030861D01*
Y1034000D01*
X991217Y1037274D01*
X989954Y1040324D01*
X987944Y1042944D01*
X985324Y1044954D01*
X982274Y1046217D01*
X979000Y1046648D01*
X975726Y1046217D01*
X972676Y1044954D01*
X970056Y1042944D01*
X968046Y1040324D01*
X966783Y1037274D01*
X966352Y1034000D01*
Y1025622D01*
X966352Y1025622D01*
X966783Y1022348D01*
X968046Y1019298D01*
X970056Y1016678D01*
X1048056Y938678D01*
X1048057Y938678D01*
X1059082Y927652D01*
Y663469D01*
X1008903Y613290D01*
X1002210D01*
Y603721D01*
X1001852Y601000D01*
X1002210Y598279D01*
Y588918D01*
X1002210Y588710D01*
X1001708Y587648D01*
X921226D01*
X920886Y588918D01*
X923046Y590166D01*
X925335Y592454D01*
X926953Y595256D01*
X927790Y598382D01*
Y598730D01*
X903210D01*
Y598382D01*
X903726Y596458D01*
X902587Y595800D01*
X893148Y605239D01*
Y790261D01*
X909943Y807056D01*
X911953Y809676D01*
X913217Y812726D01*
X913648Y816000D01*
X913648Y816000D01*
Y1034000D01*
X913217Y1037274D01*
X911953Y1040324D01*
X909943Y1042944D01*
X907324Y1044954D01*
X904273Y1046217D01*
X901000Y1046648D01*
D02*
G37*
G36*
X1255988Y784940D02*
X1253212D01*
X1250532Y784222D01*
X1248128Y782834D01*
X1246166Y780872D01*
X1244778Y778468D01*
X1244060Y775788D01*
Y773012D01*
X1244778Y770332D01*
X1246166Y767928D01*
X1248128Y765966D01*
X1250532Y764578D01*
X1253212Y763860D01*
X1255988D01*
X1258668Y764578D01*
X1261072Y765966D01*
X1263034Y767928D01*
X1264422Y770332D01*
X1265140Y773012D01*
Y775788D01*
X1264422Y778468D01*
X1263034Y780872D01*
X1261072Y782834D01*
X1258668Y784222D01*
X1255988Y784940D01*
D02*
G37*
G36*
X1013388Y761740D02*
X1013270D01*
Y752470D01*
X1022540D01*
Y752588D01*
X1021822Y755268D01*
X1020434Y757672D01*
X1018472Y759634D01*
X1016068Y761022D01*
X1013388Y761740D01*
D02*
G37*
G36*
X1010730D02*
X1010612D01*
X1007932Y761022D01*
X1005528Y759634D01*
X1003566Y757672D01*
X1002178Y755268D01*
X1001460Y752588D01*
Y752470D01*
X1010730D01*
Y761740D01*
D02*
G37*
G36*
X776788Y765540D02*
X774012D01*
X771332Y764822D01*
X768928Y763434D01*
X766966Y761472D01*
X765578Y759068D01*
X764860Y756388D01*
Y753612D01*
X765578Y750932D01*
X766966Y748528D01*
X768928Y746566D01*
X771332Y745178D01*
X774012Y744460D01*
X776788D01*
X779468Y745178D01*
X781872Y746566D01*
X783834Y748528D01*
X785222Y750932D01*
X785940Y753612D01*
Y756388D01*
X785222Y759068D01*
X783834Y761472D01*
X781872Y763434D01*
X779468Y764822D01*
X776788Y765540D01*
D02*
G37*
G36*
X1022540Y749930D02*
X1013270D01*
Y740660D01*
X1013388D01*
X1016068Y741378D01*
X1018472Y742766D01*
X1020434Y744728D01*
X1021822Y747132D01*
X1022540Y749812D01*
Y749930D01*
D02*
G37*
G36*
X1010730D02*
X1001460D01*
Y749812D01*
X1002178Y747132D01*
X1003566Y744728D01*
X1005528Y742766D01*
X1007932Y741378D01*
X1010612Y740660D01*
X1010730D01*
Y749930D01*
D02*
G37*
G36*
X1255988Y759540D02*
X1253212D01*
X1250532Y758822D01*
X1248128Y757434D01*
X1246166Y755472D01*
X1244778Y753068D01*
X1244060Y750388D01*
Y747612D01*
X1244778Y744932D01*
X1246166Y742528D01*
X1248128Y740566D01*
X1250532Y739178D01*
X1253212Y738460D01*
X1255988D01*
X1258668Y739178D01*
X1261072Y740566D01*
X1263034Y742528D01*
X1264422Y744932D01*
X1265140Y747612D01*
Y750388D01*
X1264422Y753068D01*
X1263034Y755472D01*
X1261072Y757434D01*
X1258668Y758822D01*
X1255988Y759540D01*
D02*
G37*
G36*
X1156540Y736340D02*
X1147270D01*
Y727070D01*
X1156540D01*
Y736340D01*
D02*
G37*
G36*
X1144730D02*
X1135460D01*
Y727070D01*
X1144730D01*
Y736340D01*
D02*
G37*
G36*
X1022540D02*
X1013270D01*
Y727070D01*
X1022540D01*
Y736340D01*
D02*
G37*
G36*
X1010730D02*
X1001460D01*
Y727070D01*
X1010730D01*
Y736340D01*
D02*
G37*
G36*
X776788Y740140D02*
X774012D01*
X771332Y739422D01*
X768928Y738034D01*
X766966Y736072D01*
X765578Y733668D01*
X764860Y730988D01*
Y728212D01*
X765578Y725532D01*
X766966Y723128D01*
X768928Y721166D01*
X771332Y719778D01*
X774012Y719060D01*
X776788D01*
X779468Y719778D01*
X781872Y721166D01*
X783834Y723128D01*
X785222Y725532D01*
X785940Y728212D01*
Y730988D01*
X785222Y733668D01*
X783834Y736072D01*
X781872Y738034D01*
X779468Y739422D01*
X776788Y740140D01*
D02*
G37*
G36*
X1156540Y724530D02*
X1147270D01*
Y715260D01*
X1156540D01*
Y724530D01*
D02*
G37*
G36*
X1144730D02*
X1135460D01*
Y715260D01*
X1144730D01*
Y724530D01*
D02*
G37*
G36*
X1022540Y724530D02*
X1013270D01*
Y715260D01*
X1022540D01*
Y724530D01*
D02*
G37*
G36*
X1010730D02*
X1001460D01*
Y715260D01*
X1010730D01*
Y724530D01*
D02*
G37*
G36*
X1255988Y734140D02*
X1253212D01*
X1250532Y733422D01*
X1248128Y732034D01*
X1246166Y730072D01*
X1244778Y727668D01*
X1244060Y724988D01*
Y722212D01*
X1244778Y719532D01*
X1246166Y717128D01*
X1248128Y715166D01*
X1250532Y713778D01*
X1253212Y713060D01*
X1255988D01*
X1258668Y713778D01*
X1261072Y715166D01*
X1263034Y717128D01*
X1264422Y719532D01*
X1265140Y722212D01*
Y724988D01*
X1264422Y727668D01*
X1263034Y730072D01*
X1261072Y732034D01*
X1258668Y733422D01*
X1255988Y734140D01*
D02*
G37*
G36*
X776788Y714740D02*
X774012D01*
X771332Y714022D01*
X768928Y712634D01*
X766966Y710672D01*
X765578Y708268D01*
X764860Y705588D01*
Y702812D01*
X765578Y700132D01*
X766966Y697728D01*
X768928Y695766D01*
X771332Y694378D01*
X774012Y693660D01*
X776788D01*
X779468Y694378D01*
X781872Y695766D01*
X783834Y697728D01*
X785222Y700132D01*
X785940Y702812D01*
Y705588D01*
X785222Y708268D01*
X783834Y710672D01*
X781872Y712634D01*
X779468Y714022D01*
X776788Y714740D01*
D02*
G37*
G36*
X1255988Y708740D02*
X1253212D01*
X1250532Y708022D01*
X1248128Y706634D01*
X1246166Y704672D01*
X1244778Y702268D01*
X1244060Y699588D01*
Y696812D01*
X1244778Y694132D01*
X1246166Y691728D01*
X1248128Y689766D01*
X1250532Y688378D01*
X1253212Y687660D01*
X1255988D01*
X1258668Y688378D01*
X1261072Y689766D01*
X1263034Y691728D01*
X1264422Y694132D01*
X1265140Y696812D01*
Y699588D01*
X1264422Y702268D01*
X1263034Y704672D01*
X1261072Y706634D01*
X1258668Y708022D01*
X1255988Y708740D01*
D02*
G37*
G36*
X776788Y689340D02*
X774012D01*
X771332Y688622D01*
X768928Y687234D01*
X766966Y685272D01*
X765578Y682868D01*
X764860Y680188D01*
Y677412D01*
X765578Y674732D01*
X766966Y672328D01*
X768928Y670366D01*
X771332Y668978D01*
X774012Y668260D01*
X776788D01*
X779468Y668978D01*
X781872Y670366D01*
X783834Y672328D01*
X785222Y674732D01*
X785940Y677412D01*
Y680188D01*
X785222Y682868D01*
X783834Y685272D01*
X781872Y687234D01*
X779468Y688622D01*
X776788Y689340D01*
D02*
G37*
G36*
X1255988Y683340D02*
X1253212D01*
X1250532Y682622D01*
X1248128Y681234D01*
X1246166Y679272D01*
X1244778Y676868D01*
X1244060Y674188D01*
Y671412D01*
X1244778Y668732D01*
X1246166Y666328D01*
X1248128Y664366D01*
X1250532Y662978D01*
X1253212Y662260D01*
X1255988D01*
X1258668Y662978D01*
X1261072Y664366D01*
X1263034Y666328D01*
X1264422Y668732D01*
X1265140Y671412D01*
Y674188D01*
X1264422Y676868D01*
X1263034Y679272D01*
X1261072Y681234D01*
X1258668Y682622D01*
X1255988Y683340D01*
D02*
G37*
G36*
X776788Y663940D02*
X776670D01*
Y654670D01*
X785940D01*
Y654788D01*
X785222Y657468D01*
X783834Y659872D01*
X781872Y661834D01*
X779468Y663222D01*
X776788Y663940D01*
D02*
G37*
G36*
X774130D02*
X774012D01*
X771332Y663222D01*
X768928Y661834D01*
X766966Y659872D01*
X765578Y657468D01*
X764860Y654788D01*
Y654670D01*
X774130D01*
Y663940D01*
D02*
G37*
G36*
X785940Y652130D02*
X776670D01*
Y642860D01*
X776788D01*
X779468Y643578D01*
X781872Y644966D01*
X783834Y646928D01*
X785222Y649332D01*
X785940Y652012D01*
Y652130D01*
D02*
G37*
G36*
X774130D02*
X764860D01*
Y652012D01*
X765578Y649332D01*
X766966Y646928D01*
X768928Y644966D01*
X771332Y643578D01*
X774012Y642860D01*
X774130D01*
Y652130D01*
D02*
G37*
G36*
X785940Y638540D02*
X764860D01*
Y617460D01*
X785940D01*
Y638540D01*
D02*
G37*
G36*
X1184118Y613290D02*
X1183770D01*
Y602270D01*
X1194790D01*
Y602618D01*
X1193952Y605744D01*
X1192334Y608546D01*
X1190046Y610835D01*
X1187244Y612453D01*
X1184118Y613290D01*
D02*
G37*
G36*
X1181230D02*
X1180882D01*
X1177756Y612453D01*
X1174954Y610835D01*
X1172665Y608546D01*
X1171048Y605744D01*
X1170210Y602618D01*
Y602270D01*
X1181230D01*
Y613290D01*
D02*
G37*
G36*
X1051118D02*
X1050770D01*
Y602270D01*
X1061790D01*
Y602618D01*
X1060953Y605744D01*
X1059335Y608546D01*
X1057047Y610835D01*
X1054244Y612453D01*
X1051118Y613290D01*
D02*
G37*
G36*
X917118Y612290D02*
X916770D01*
Y601270D01*
X927790D01*
Y601618D01*
X926953Y604744D01*
X925335Y607546D01*
X923046Y609835D01*
X920244Y611453D01*
X917118Y612290D01*
D02*
G37*
G36*
X914230D02*
X913882D01*
X910757Y611453D01*
X907954Y609835D01*
X905666Y607546D01*
X904048Y604744D01*
X903210Y601618D01*
Y601270D01*
X914230D01*
Y612290D01*
D02*
G37*
G36*
X775270Y585863D02*
Y578270D01*
X782863D01*
X782284Y580431D01*
X781114Y582459D01*
X779459Y584114D01*
X777431Y585284D01*
X775270Y585863D01*
D02*
G37*
G36*
X772730D02*
X770569Y585284D01*
X768541Y584114D01*
X766886Y582459D01*
X765716Y580431D01*
X765137Y578270D01*
X772730D01*
Y585863D01*
D02*
G37*
G36*
X782863Y575730D02*
X775270D01*
Y568137D01*
X777431Y568716D01*
X779459Y569886D01*
X781114Y571541D01*
X782284Y573569D01*
X782863Y575730D01*
D02*
G37*
G36*
X772730D02*
X765137D01*
X765716Y573569D01*
X766886Y571541D01*
X768541Y569886D01*
X770569Y568716D01*
X772730Y568137D01*
Y575730D01*
D02*
G37*
%LPD*%
D10*
X1057000Y947622D02*
X1071730Y932891D01*
X1057000Y947622D02*
Y1034000D01*
X979000Y1025622D02*
X1057000Y947622D01*
X1134730Y1001730D02*
Y1033730D01*
X1068811Y935811D02*
X1134730Y1001730D01*
X1071730Y658230D02*
Y932891D01*
X979000Y1025622D02*
Y1034000D01*
X880500Y795500D02*
X901000Y816000D01*
Y1034000D01*
X880500Y600000D02*
Y795500D01*
X1180573Y861400D02*
X1202000D01*
X1171973Y852800D02*
X1180573Y861400D01*
X1146000Y852800D02*
X1171973D01*
X1178400Y827400D02*
X1187000Y836000D01*
X1202000D01*
X1146000Y827400D02*
X1178400D01*
X1194000Y810000D02*
X1201400D01*
X1202000Y810600D01*
X1186000Y802000D02*
X1194000Y810000D01*
X1146000Y802000D02*
X1186000D01*
X1146000Y776600D02*
X1193400D01*
X1202000Y785200D01*
X880500Y600000D02*
X905500Y575000D01*
X1205000D02*
X1218000Y588000D01*
X905500Y575000D02*
X1205000D01*
X1218000Y588000D02*
Y705000D01*
X1171800Y751200D02*
X1218000Y705000D01*
X1146000Y751200D02*
X1171800D01*
X1106000Y874000D02*
X1135600Y903600D01*
X1146000D01*
X1106000Y642500D02*
X1147500Y601000D01*
X1106000Y642500D02*
Y874000D01*
X1014500Y601000D02*
X1071730Y658230D01*
D11*
X1012000Y903600D02*
D03*
Y878200D02*
D03*
Y827400D02*
D03*
Y776600D02*
D03*
Y751200D02*
D03*
Y802000D02*
D03*
Y852800D02*
D03*
X1146000Y903600D02*
D03*
Y878200D02*
D03*
Y827400D02*
D03*
Y776600D02*
D03*
Y751200D02*
D03*
Y802000D02*
D03*
Y852800D02*
D03*
X775400Y755000D02*
D03*
Y704200D02*
D03*
Y653400D02*
D03*
Y678800D02*
D03*
Y729600D02*
D03*
Y780400D02*
D03*
Y805800D02*
D03*
X1254600Y723600D02*
D03*
Y774400D02*
D03*
Y825200D02*
D03*
Y799800D02*
D03*
Y749000D02*
D03*
Y698200D02*
D03*
Y672800D02*
D03*
Y897800D02*
D03*
Y923200D02*
D03*
Y974000D02*
D03*
Y999400D02*
D03*
Y948600D02*
D03*
X775400Y974000D02*
D03*
Y923200D02*
D03*
Y872400D02*
D03*
Y897800D02*
D03*
Y948600D02*
D03*
Y999400D02*
D03*
Y1024800D02*
D03*
X1202000Y836000D02*
D03*
Y810600D02*
D03*
Y785200D02*
D03*
D12*
X1012000Y725800D02*
D03*
X1146000D02*
D03*
X775400Y628000D02*
D03*
X1254600Y850600D02*
D03*
Y1024800D02*
D03*
X775400Y847000D02*
D03*
X1202000Y861400D02*
D03*
D13*
X1147500Y601000D02*
D03*
X880500Y600000D02*
D03*
X1014500Y601000D02*
D03*
D14*
X1182500D02*
D03*
X915500Y600000D02*
D03*
X1049500Y601000D02*
D03*
D15*
X901000Y1034000D02*
D03*
X926000D02*
D03*
X1134730Y1033730D02*
D03*
X1159730D02*
D03*
X979000Y1034000D02*
D03*
X1004000D02*
D03*
X1057000D02*
D03*
X1082000D02*
D03*
D16*
X876000Y1034000D02*
D03*
X1109730Y1033730D02*
D03*
X954000Y1034000D02*
D03*
X1032000D02*
D03*
D17*
X774000Y577000D02*
D03*
M02*
