M48
;Layer_Color=9474304
;FILE_FORMAT=4:2
METRIC,LZ
;TYPE=PLATED
T1F00S00C0.71
T2F00S00C0.90
T3F00S00C1.10
T4F00S00C1.30
%
T01
X00774Y00577
T02
X00876Y01034
X00901
X00926
X00954Y01034
X00979
X01004
X01032
X01057
X01082
X011097Y010337
X011347
X011597
T03
X012546Y006728
Y006982
Y007236
Y00749
Y007744
X01202Y007852
X01146Y007766
Y007512
Y007258
X01012
Y007512
Y007766
X007754Y007804
Y00755
Y007296
Y007042
Y006788
Y006534
Y00628
Y008058
Y00847
Y008724
Y008978
Y009232
Y009486
Y00974
Y009994
Y010248
X01012Y009036
Y008782
Y008528
Y008274
Y00802
X01146
Y008274
Y008528
Y008782
Y009036
X01202Y008614
Y00836
Y008106
X012546Y007998
Y008252
Y008506
Y008978
Y009232
Y009486
Y00974
Y009994
Y010248
T04
X008805Y006
X009155
X010145Y00601
X010495
X011475
X011825
M30
