%TF.GenerationSoftware,KiCad,Pcbnew,(6.0.5-0)*%
%TF.CreationDate,2022-06-16T09:16:50+02:00*%
%TF.ProjectId,BRFEv3_Shield,42524645-7633-45f5-9368-69656c642e6b,rev?*%
%TF.SameCoordinates,Original*%
%TF.FileFunction,Plated,1,2,PTH,Drill*%
%TF.FilePolarity,Positive*%
%FSLAX46Y46*%
G04 Gerber Fmt 4.6, Leading zero omitted, Abs format (unit mm)*
G04 Created by KiCad (PCBNEW (6.0.5-0)) date 2022-06-16 09:16:50*
%MOMM*%
%LPD*%
G01*
G04 APERTURE LIST*
%TA.AperFunction,ComponentDrill*%
%ADD10C,0.700000*%
%TD*%
%TA.AperFunction,ViaDrill*%
%ADD11C,0.800000*%
%TD*%
%TA.AperFunction,ComponentDrill*%
%ADD12C,1.000000*%
%TD*%
%TA.AperFunction,ComponentDrill*%
%ADD13C,1.016000*%
%TD*%
%TA.AperFunction,ComponentDrill*%
%ADD14C,1.100000*%
%TD*%
%TA.AperFunction,ComponentDrill*%
%ADD15C,1.400000*%
%TD*%
G04 APERTURE END LIST*
D10*
%TO.C,R6*%
X127798000Y-95185000D03*
X127798000Y-100265000D03*
%TO.C,R4*%
X127798000Y-108475000D03*
X127798000Y-113555000D03*
%TO.C,R5*%
X136898000Y-101375000D03*
X136898000Y-106455000D03*
%TO.C,R3*%
X137698000Y-76175000D03*
X137698000Y-81255000D03*
%TO.C,R7*%
X137808000Y-92065000D03*
X142888000Y-92065000D03*
%TO.C,R1*%
X144598000Y-108575000D03*
X144598000Y-113655000D03*
%TD*%
D11*
X122198000Y-117965000D03*
X145098000Y-117065000D03*
X152698000Y-110965000D03*
X153298000Y-117865000D03*
X155298000Y-75165000D03*
X155998000Y-121765000D03*
X158598000Y-121765000D03*
X161098000Y-121865000D03*
X161298000Y-74665000D03*
X163598000Y-121765000D03*
X163798000Y-74965000D03*
X166198000Y-121865000D03*
X166498000Y-112465000D03*
X168698000Y-121865000D03*
X170498000Y-112465000D03*
D12*
%TO.C,J8*%
X119543000Y-120165000D03*
X122083000Y-120165000D03*
X124623000Y-120165000D03*
%TO.C,J7*%
X131123000Y-76265000D03*
X133663000Y-76265000D03*
%TO.C,J4*%
X148598000Y-108600000D03*
X148598000Y-111140000D03*
%TO.C,J6*%
X152693000Y-102265000D03*
%TO.C,J5*%
X152798000Y-115165000D03*
%TO.C,J13*%
X152898000Y-77640000D03*
X152898000Y-80180000D03*
X152898000Y-82720000D03*
%TO.C,J6*%
X155233000Y-102265000D03*
%TO.C,J5*%
X155338000Y-115165000D03*
%TO.C,P10*%
X156008000Y-123755000D03*
%TO.C,J6*%
X157773000Y-102265000D03*
%TO.C,J14*%
X157778000Y-92165000D03*
%TO.C,J5*%
X157878000Y-115165000D03*
%TO.C,P10*%
X158548000Y-123755000D03*
%TO.C,J6*%
X160313000Y-102265000D03*
%TO.C,J14*%
X160318000Y-92165000D03*
%TO.C,J5*%
X160418000Y-115165000D03*
%TO.C,P10*%
X161088000Y-123755000D03*
%TO.C,J12*%
X161398000Y-77540000D03*
X161398000Y-80080000D03*
X161398000Y-82620000D03*
%TO.C,J6*%
X162853000Y-102265000D03*
%TO.C,J14*%
X162858000Y-92165000D03*
%TO.C,J5*%
X162958000Y-115165000D03*
%TO.C,P10*%
X163628000Y-123755000D03*
%TO.C,J6*%
X165393000Y-102265000D03*
%TO.C,J14*%
X165398000Y-92165000D03*
%TO.C,J5*%
X165498000Y-115165000D03*
%TO.C,P10*%
X166168000Y-123755000D03*
%TO.C,J11*%
X166298000Y-77440000D03*
X166298000Y-79980000D03*
X166298000Y-82520000D03*
%TO.C,J6*%
X167933000Y-102265000D03*
%TO.C,J5*%
X168038000Y-115165000D03*
%TO.C,P10*%
X168708000Y-123755000D03*
%TO.C,J6*%
X170473000Y-102265000D03*
%TO.C,J5*%
X170578000Y-115165000D03*
D13*
%TO.C,P3*%
X124004000Y-71505000D03*
X126544000Y-71505000D03*
X129084000Y-71505000D03*
X131624000Y-71505000D03*
%TO.C,P1*%
X133148000Y-119765000D03*
%TO.C,P3*%
X134164000Y-71505000D03*
%TO.C,P1*%
X135688000Y-119765000D03*
%TO.C,P3*%
X136704000Y-71505000D03*
%TO.C,P1*%
X138228000Y-119765000D03*
%TO.C,P3*%
X139244000Y-71505000D03*
%TO.C,P1*%
X140768000Y-119765000D03*
%TO.C,P3*%
X141784000Y-71505000D03*
%TO.C,P1*%
X143308000Y-119765000D03*
%TO.C,P3*%
X144324000Y-71505000D03*
%TO.C,P1*%
X145848000Y-119765000D03*
%TO.C,P3*%
X146864000Y-71505000D03*
%TO.C,P1*%
X148388000Y-119765000D03*
%TO.C,P4*%
X150928000Y-71505000D03*
%TO.C,P1*%
X150928000Y-119765000D03*
%TO.C,P4*%
X153468000Y-71505000D03*
X156008000Y-71505000D03*
%TO.C,P2*%
X156008000Y-119765000D03*
%TO.C,P4*%
X158548000Y-71505000D03*
%TO.C,P2*%
X158548000Y-119765000D03*
%TO.C,P4*%
X161088000Y-71505000D03*
%TO.C,P2*%
X161088000Y-119765000D03*
%TO.C,P4*%
X163628000Y-71505000D03*
%TO.C,P2*%
X163628000Y-119765000D03*
%TO.C,P4*%
X166168000Y-71505000D03*
%TO.C,P2*%
X166168000Y-119765000D03*
%TO.C,P4*%
X168708000Y-71505000D03*
%TO.C,P2*%
X168708000Y-119765000D03*
D14*
%TO.C,Q5*%
X128008000Y-90520000D03*
%TO.C,Q3*%
X128008000Y-104020000D03*
%TO.C,Q2*%
X130158000Y-84320000D03*
%TO.C,Q5*%
X130548000Y-90520000D03*
%TO.C,Q3*%
X130548000Y-104020000D03*
%TO.C,D1*%
X130910818Y-79865000D03*
%TO.C,Q4*%
X131658000Y-108970000D03*
%TO.C,Q6*%
X131758000Y-95620000D03*
%TO.C,Q2*%
X132698000Y-84320000D03*
%TO.C,Q5*%
X133088000Y-90520000D03*
%TO.C,Q3*%
X133088000Y-104020000D03*
%TO.C,Q4*%
X134198000Y-108970000D03*
%TO.C,Q6*%
X134298000Y-95620000D03*
%TO.C,D1*%
X134720818Y-79865000D03*
%TO.C,Q2*%
X135238000Y-84320000D03*
%TO.C,Q4*%
X136738000Y-108970000D03*
%TO.C,Q6*%
X136838000Y-95620000D03*
D15*
%TO.C,J3*%
X119475500Y-78165000D03*
X119475500Y-83165000D03*
%TO.C,J1*%
X119560500Y-105645000D03*
X119560500Y-110645000D03*
%TO.C,J2*%
X119588000Y-91745000D03*
X119588000Y-96745000D03*
M02*
