G04 #@! TF.GenerationSoftware,KiCad,Pcbnew,(6.0.5-0)*
G04 #@! TF.CreationDate,2022-06-14T16:30:35+02:00*
G04 #@! TF.ProjectId,BRFEv3_Shield,42524645-7633-45f5-9368-69656c642e6b,rev?*
G04 #@! TF.SameCoordinates,Original*
G04 #@! TF.FileFunction,Other,ECO1*
%FSLAX46Y46*%
G04 Gerber Fmt 4.6, Leading zero omitted, Abs format (unit mm)*
G04 Created by KiCad (PCBNEW (6.0.5-0)) date 2022-06-14 16:30:35*
%MOMM*%
%LPD*%
G01*
G04 APERTURE LIST*
G04 #@! TA.AperFunction,Profile*
%ADD10C,0.150000*%
G04 #@! TD*
%ADD11C,0.300000*%
G04 APERTURE END LIST*
D10*
X114778000Y-65325000D02*
X174608000Y-65325000D01*
X174608000Y-65325000D02*
X174608000Y-125885000D01*
X174608000Y-125885000D02*
X114778000Y-125885000D01*
X114778000Y-125885000D02*
X114778000Y-65325000D01*
D11*
X123893238Y-80576904D02*
X123893238Y-79434047D01*
X123893238Y-80005476D02*
X125893238Y-80005476D01*
X125607523Y-79815000D01*
X125417047Y-79624523D01*
X125321809Y-79434047D01*
X125702761Y-81338809D02*
X125798000Y-81434047D01*
X125893238Y-81624523D01*
X125893238Y-82100714D01*
X125798000Y-82291190D01*
X125702761Y-82386428D01*
X125512285Y-82481666D01*
X125321809Y-82481666D01*
X125036095Y-82386428D01*
X123893238Y-81243571D01*
X123893238Y-82481666D01*
X125893238Y-83053095D02*
X123893238Y-83719761D01*
X125893238Y-84386428D01*
X147205142Y-75122142D02*
X146605142Y-75122142D01*
X146605142Y-76169761D02*
X146605142Y-74169761D01*
X147462285Y-74169761D01*
X148148000Y-76169761D02*
X148148000Y-74169761D01*
X148576571Y-74169761D01*
X148833714Y-74265000D01*
X149005142Y-74455476D01*
X149090857Y-74645952D01*
X149176571Y-75026904D01*
X149176571Y-75312619D01*
X149090857Y-75693571D01*
X149005142Y-75884047D01*
X148833714Y-76074523D01*
X148576571Y-76169761D01*
X148148000Y-76169761D01*
X150976571Y-75979285D02*
X150890857Y-76074523D01*
X150633714Y-76169761D01*
X150462285Y-76169761D01*
X150205142Y-76074523D01*
X150033714Y-75884047D01*
X149948000Y-75693571D01*
X149862285Y-75312619D01*
X149862285Y-75026904D01*
X149948000Y-74645952D01*
X150033714Y-74455476D01*
X150205142Y-74265000D01*
X150462285Y-74169761D01*
X150633714Y-74169761D01*
X150890857Y-74265000D01*
X150976571Y-74360238D01*
X151690857Y-86124523D02*
X151948000Y-86219761D01*
X152376571Y-86219761D01*
X152548000Y-86124523D01*
X152633714Y-86029285D01*
X152719428Y-85838809D01*
X152719428Y-85648333D01*
X152633714Y-85457857D01*
X152548000Y-85362619D01*
X152376571Y-85267380D01*
X152033714Y-85172142D01*
X151862285Y-85076904D01*
X151776571Y-84981666D01*
X151690857Y-84791190D01*
X151690857Y-84600714D01*
X151776571Y-84410238D01*
X151862285Y-84315000D01*
X152033714Y-84219761D01*
X152462285Y-84219761D01*
X152719428Y-84315000D01*
X153490857Y-85172142D02*
X154090857Y-85172142D01*
X154348000Y-86219761D02*
X153490857Y-86219761D01*
X153490857Y-84219761D01*
X154348000Y-84219761D01*
X156148000Y-86219761D02*
X155548000Y-85267380D01*
X155119428Y-86219761D02*
X155119428Y-84219761D01*
X155805142Y-84219761D01*
X155976571Y-84315000D01*
X156062285Y-84410238D01*
X156148000Y-84600714D01*
X156148000Y-84886428D01*
X156062285Y-85076904D01*
X155976571Y-85172142D01*
X155805142Y-85267380D01*
X155119428Y-85267380D01*
X156662285Y-84219761D02*
X157262285Y-86219761D01*
X157862285Y-84219761D01*
X158376571Y-84410238D02*
X158462285Y-84315000D01*
X158633714Y-84219761D01*
X159062285Y-84219761D01*
X159233714Y-84315000D01*
X159319428Y-84410238D01*
X159405142Y-84600714D01*
X159405142Y-84791190D01*
X159319428Y-85076904D01*
X158290857Y-86219761D01*
X159405142Y-86219761D01*
X161140857Y-86064523D02*
X161398000Y-86159761D01*
X161826571Y-86159761D01*
X161998000Y-86064523D01*
X162083714Y-85969285D01*
X162169428Y-85778809D01*
X162169428Y-85588333D01*
X162083714Y-85397857D01*
X161998000Y-85302619D01*
X161826571Y-85207380D01*
X161483714Y-85112142D01*
X161312285Y-85016904D01*
X161226571Y-84921666D01*
X161140857Y-84731190D01*
X161140857Y-84540714D01*
X161226571Y-84350238D01*
X161312285Y-84255000D01*
X161483714Y-84159761D01*
X161912285Y-84159761D01*
X162169428Y-84255000D01*
X162940857Y-85112142D02*
X163540857Y-85112142D01*
X163798000Y-86159761D02*
X162940857Y-86159761D01*
X162940857Y-84159761D01*
X163798000Y-84159761D01*
X165598000Y-86159761D02*
X164998000Y-85207380D01*
X164569428Y-86159761D02*
X164569428Y-84159761D01*
X165255142Y-84159761D01*
X165426571Y-84255000D01*
X165512285Y-84350238D01*
X165598000Y-84540714D01*
X165598000Y-84826428D01*
X165512285Y-85016904D01*
X165426571Y-85112142D01*
X165255142Y-85207380D01*
X164569428Y-85207380D01*
X166112285Y-84159761D02*
X166712285Y-86159761D01*
X167312285Y-84159761D01*
X168855142Y-86159761D02*
X167826571Y-86159761D01*
X168340857Y-86159761D02*
X168340857Y-84159761D01*
X168169428Y-84445476D01*
X167998000Y-84635952D01*
X167826571Y-84731190D01*
X144690857Y-80019761D02*
X144690857Y-78019761D01*
X145376571Y-78019761D01*
X145548000Y-78115000D01*
X145633714Y-78210238D01*
X145719428Y-78400714D01*
X145719428Y-78686428D01*
X145633714Y-78876904D01*
X145548000Y-78972142D01*
X145376571Y-79067380D01*
X144690857Y-79067380D01*
X146490857Y-80019761D02*
X146490857Y-78019761D01*
X147348000Y-80019761D02*
X147348000Y-78019761D01*
X148376571Y-80019761D01*
X148376571Y-78019761D01*
X150262285Y-79829285D02*
X150176571Y-79924523D01*
X149919428Y-80019761D01*
X149748000Y-80019761D01*
X149490857Y-79924523D01*
X149319428Y-79734047D01*
X149233714Y-79543571D01*
X149148000Y-79162619D01*
X149148000Y-78876904D01*
X149233714Y-78495952D01*
X149319428Y-78305476D01*
X149490857Y-78115000D01*
X149748000Y-78019761D01*
X149919428Y-78019761D01*
X150176571Y-78115000D01*
X150262285Y-78210238D01*
X151033714Y-78972142D02*
X151633714Y-78972142D01*
X151890857Y-80019761D02*
X151033714Y-80019761D01*
X151033714Y-78019761D01*
X151890857Y-78019761D01*
X125593238Y-94684047D02*
X125593238Y-93731666D01*
X124640857Y-93636428D01*
X124736095Y-93731666D01*
X124831333Y-93922142D01*
X124831333Y-94398333D01*
X124736095Y-94588809D01*
X124640857Y-94684047D01*
X124450380Y-94779285D01*
X123974190Y-94779285D01*
X123783714Y-94684047D01*
X123688476Y-94588809D01*
X123593238Y-94398333D01*
X123593238Y-93922142D01*
X123688476Y-93731666D01*
X123783714Y-93636428D01*
X125593238Y-95350714D02*
X123593238Y-96017380D01*
X125593238Y-96684047D01*
X125493238Y-108488809D02*
X125493238Y-108107857D01*
X125398000Y-107917380D01*
X125302761Y-107822142D01*
X125017047Y-107631666D01*
X124636095Y-107536428D01*
X123874190Y-107536428D01*
X123683714Y-107631666D01*
X123588476Y-107726904D01*
X123493238Y-107917380D01*
X123493238Y-108298333D01*
X123588476Y-108488809D01*
X123683714Y-108584047D01*
X123874190Y-108679285D01*
X124350380Y-108679285D01*
X124540857Y-108584047D01*
X124636095Y-108488809D01*
X124731333Y-108298333D01*
X124731333Y-107917380D01*
X124636095Y-107726904D01*
X124540857Y-107631666D01*
X124350380Y-107536428D01*
X125493238Y-109250714D02*
X123493238Y-109917380D01*
X125493238Y-110584047D01*
X152569428Y-89124523D02*
X152826571Y-89219761D01*
X153255142Y-89219761D01*
X153426571Y-89124523D01*
X153512285Y-89029285D01*
X153598000Y-88838809D01*
X153598000Y-88648333D01*
X153512285Y-88457857D01*
X153426571Y-88362619D01*
X153255142Y-88267380D01*
X152912285Y-88172142D01*
X152740857Y-88076904D01*
X152655142Y-87981666D01*
X152569428Y-87791190D01*
X152569428Y-87600714D01*
X152655142Y-87410238D01*
X152740857Y-87315000D01*
X152912285Y-87219761D01*
X153340857Y-87219761D01*
X153598000Y-87315000D01*
X154112285Y-87219761D02*
X155140857Y-87219761D01*
X154626571Y-89219761D02*
X154626571Y-87219761D01*
X155740857Y-88172142D02*
X156340857Y-88172142D01*
X156598000Y-89219761D02*
X155740857Y-89219761D01*
X155740857Y-87219761D01*
X156598000Y-87219761D01*
X157369428Y-89219761D02*
X157369428Y-87219761D01*
X158055142Y-87219761D01*
X158226571Y-87315000D01*
X158312285Y-87410238D01*
X158398000Y-87600714D01*
X158398000Y-87886428D01*
X158312285Y-88076904D01*
X158226571Y-88172142D01*
X158055142Y-88267380D01*
X157369428Y-88267380D01*
X159169428Y-89219761D02*
X159169428Y-87219761D01*
X159855142Y-87219761D01*
X160026571Y-87315000D01*
X160112285Y-87410238D01*
X160198000Y-87600714D01*
X160198000Y-87886428D01*
X160112285Y-88076904D01*
X160026571Y-88172142D01*
X159855142Y-88267380D01*
X159169428Y-88267380D01*
X160969428Y-88172142D02*
X161569428Y-88172142D01*
X161826571Y-89219761D02*
X160969428Y-89219761D01*
X160969428Y-87219761D01*
X161826571Y-87219761D01*
X163626571Y-89219761D02*
X163026571Y-88267380D01*
X162598000Y-89219761D02*
X162598000Y-87219761D01*
X163283714Y-87219761D01*
X163455142Y-87315000D01*
X163540857Y-87410238D01*
X163626571Y-87600714D01*
X163626571Y-87886428D01*
X163540857Y-88076904D01*
X163455142Y-88172142D01*
X163283714Y-88267380D01*
X162598000Y-88267380D01*
X136578952Y-84922142D02*
X135912285Y-84922142D01*
X135912285Y-85969761D02*
X135912285Y-83969761D01*
X136864666Y-83969761D01*
X137531333Y-85398333D02*
X138483714Y-85398333D01*
X137340857Y-85969761D02*
X138007523Y-83969761D01*
X138674190Y-85969761D01*
X139340857Y-85969761D02*
X139340857Y-83969761D01*
X140483714Y-85969761D01*
X140483714Y-83969761D01*
M02*
