G04*
G04 #@! TF.GenerationSoftware,Altium Limited,Altium Designer,22.4.2 (48)*
G04*
G04 Layer_Physical_Order=1*
G04 Layer_Color=255*
%FSLAX44Y44*%
%MOMM*%
G71*
G04*
G04 #@! TF.SameCoordinates,3517102E-CA2B-4814-AB3A-28068C8F3B0D*
G04*
G04*
G04 #@! TF.FilePolarity,Positive*
G04*
G01*
G75*
%ADD10C,2.0000*%
%ADD11C,2.0000*%
%ADD12R,2.0000X2.0000*%
%ADD13R,2.0000X2.0000*%
%ADD14C,2.1000*%
G36*
X1281000Y1058000D02*
Y551000D01*
X751000D01*
X750000Y552000D01*
Y1062000D01*
X753000D01*
X770000Y1079000D01*
Y1080000D01*
X1259000D01*
X1281000Y1058000D01*
D02*
G37*
%LPC*%
G36*
X1008330Y1017540D02*
X1007949D01*
X1004760Y1016685D01*
X1001900Y1015034D01*
X999566Y1012700D01*
X998617Y1011056D01*
X996955Y1010719D01*
X996740Y1010882D01*
Y1017540D01*
X985470D01*
Y1005000D01*
Y992460D01*
X996740D01*
Y999118D01*
X996955Y999281D01*
X998617Y998944D01*
X999566Y997300D01*
X1001900Y994966D01*
X1004760Y993315D01*
X1007949Y992460D01*
X1008330D01*
Y1005000D01*
Y1017540D01*
D02*
G37*
G36*
X1163651D02*
X1160349D01*
X1157160Y1016685D01*
X1154300Y1015034D01*
X1151965Y1012700D01*
X1150315Y1009840D01*
X1149957Y1008507D01*
X1148643D01*
X1148285Y1009840D01*
X1146635Y1012700D01*
X1144300Y1015034D01*
X1141440Y1016685D01*
X1138251Y1017540D01*
X1134949D01*
X1131760Y1016685D01*
X1128900Y1015034D01*
X1126565Y1012700D01*
X1124915Y1009840D01*
X1124557Y1008507D01*
X1123243D01*
X1122885Y1009840D01*
X1121235Y1012700D01*
X1118900Y1015034D01*
X1116040Y1016685D01*
X1112851Y1017540D01*
X1109549D01*
X1106360Y1016685D01*
X1103500Y1015034D01*
X1101165Y1012700D01*
X1099515Y1009840D01*
X1099157Y1008507D01*
X1097843D01*
X1097485Y1009840D01*
X1095835Y1012700D01*
X1093500Y1015034D01*
X1090640Y1016685D01*
X1087451Y1017540D01*
X1084149D01*
X1080960Y1016685D01*
X1078100Y1015034D01*
X1075766Y1012700D01*
X1074115Y1009840D01*
X1073757Y1008507D01*
X1072443D01*
X1072085Y1009840D01*
X1070434Y1012700D01*
X1068100Y1015034D01*
X1065240Y1016685D01*
X1062051Y1017540D01*
X1058749D01*
X1055560Y1016685D01*
X1052700Y1015034D01*
X1050366Y1012700D01*
X1048715Y1009840D01*
X1048357Y1008507D01*
X1047043D01*
X1046685Y1009840D01*
X1045034Y1012700D01*
X1042700Y1015034D01*
X1039840Y1016685D01*
X1036651Y1017540D01*
X1036270D01*
Y1005000D01*
Y992460D01*
X1036651D01*
X1039840Y993315D01*
X1042700Y994966D01*
X1045034Y997300D01*
X1046685Y1000160D01*
X1047043Y1001493D01*
X1048357D01*
X1048715Y1000160D01*
X1050366Y997300D01*
X1052700Y994966D01*
X1055560Y993315D01*
X1058749Y992460D01*
X1062051D01*
X1065240Y993315D01*
X1068100Y994966D01*
X1070434Y997300D01*
X1072085Y1000160D01*
X1072443Y1001493D01*
X1073757D01*
X1074115Y1000160D01*
X1075766Y997300D01*
X1078100Y994966D01*
X1080960Y993315D01*
X1084149Y992460D01*
X1087451D01*
X1090640Y993315D01*
X1093500Y994966D01*
X1095835Y997300D01*
X1097485Y1000160D01*
X1097843Y1001493D01*
X1099157D01*
X1099515Y1000160D01*
X1101165Y997300D01*
X1103500Y994966D01*
X1106360Y993315D01*
X1109549Y992460D01*
X1112851D01*
X1116040Y993315D01*
X1118900Y994966D01*
X1121235Y997300D01*
X1122885Y1000160D01*
X1123243Y1001493D01*
X1124557D01*
X1124915Y1000160D01*
X1126565Y997300D01*
X1128900Y994966D01*
X1131760Y993315D01*
X1134949Y992460D01*
X1138251D01*
X1141440Y993315D01*
X1144300Y994966D01*
X1146635Y997300D01*
X1148285Y1000160D01*
X1148643Y1001493D01*
X1149957D01*
X1150315Y1000160D01*
X1151965Y997300D01*
X1154300Y994966D01*
X1157160Y993315D01*
X1160349Y992460D01*
X1163651D01*
X1166840Y993315D01*
X1169700Y994966D01*
X1172035Y997300D01*
X1173685Y1000160D01*
X1174540Y1003349D01*
Y1006651D01*
X1173685Y1009840D01*
X1172035Y1012700D01*
X1169700Y1015034D01*
X1166840Y1016685D01*
X1163651Y1017540D01*
D02*
G37*
G36*
X1033730D02*
X1033349D01*
X1030160Y1016685D01*
X1027300Y1015034D01*
X1024966Y1012700D01*
X1023315Y1009840D01*
X1022957Y1008507D01*
X1021643D01*
X1021285Y1009840D01*
X1019634Y1012700D01*
X1017300Y1015034D01*
X1014440Y1016685D01*
X1011251Y1017540D01*
X1010870D01*
Y1005000D01*
Y992460D01*
X1011251D01*
X1014440Y993315D01*
X1017300Y994966D01*
X1019634Y997300D01*
X1021285Y1000160D01*
X1021643Y1001493D01*
X1022957D01*
X1023315Y1000160D01*
X1024966Y997300D01*
X1027300Y994966D01*
X1030160Y993315D01*
X1033349Y992460D01*
X1033730D01*
Y1005000D01*
Y1017540D01*
D02*
G37*
G36*
X899540Y1019540D02*
X888270D01*
Y1008270D01*
X899540D01*
Y1019540D01*
D02*
G37*
G36*
X885730D02*
X874460D01*
Y1008270D01*
X885730D01*
Y1019540D01*
D02*
G37*
G36*
X982930Y1017540D02*
X971660D01*
Y1006270D01*
X982930D01*
Y1017540D01*
D02*
G37*
G36*
Y1003730D02*
X971660D01*
Y992460D01*
X982930D01*
Y1003730D01*
D02*
G37*
G36*
X899540Y1005730D02*
X887000D01*
X874460D01*
Y994460D01*
X880961D01*
X881301Y993190D01*
X879301Y992035D01*
X876966Y989700D01*
X875315Y986841D01*
X874460Y983651D01*
Y980350D01*
X875315Y977160D01*
X876966Y974301D01*
X879301Y971966D01*
X882160Y970315D01*
X882831Y970135D01*
Y968865D01*
X882160Y968686D01*
X879301Y967035D01*
X876966Y964700D01*
X875315Y961840D01*
X874460Y958651D01*
Y955349D01*
X875315Y952160D01*
X876966Y949301D01*
X879301Y946966D01*
X882160Y945315D01*
X885349Y944460D01*
X888651D01*
X891841Y945315D01*
X894700Y946966D01*
X897035Y949301D01*
X898686Y952160D01*
X899540Y955349D01*
Y958651D01*
X898686Y961840D01*
X897035Y964700D01*
X894700Y967035D01*
X891841Y968686D01*
X891170Y968865D01*
Y970135D01*
X891841Y970315D01*
X894700Y971966D01*
X897035Y974301D01*
X898686Y977160D01*
X899540Y980350D01*
Y983651D01*
X898686Y986841D01*
X897035Y989700D01*
X894700Y992035D01*
X892699Y993190D01*
X893039Y994460D01*
X899540D01*
Y1005730D01*
D02*
G37*
G36*
X899540Y941540D02*
X888270D01*
Y930270D01*
X899540D01*
Y941540D01*
D02*
G37*
G36*
X885730D02*
X874460D01*
Y930270D01*
X885730D01*
Y941540D01*
D02*
G37*
G36*
X1151717Y1063040D02*
X1148283D01*
X1144967Y1062151D01*
X1141993Y1060435D01*
X1139565Y1058007D01*
X1137849Y1055033D01*
X1136960Y1051717D01*
Y1048283D01*
X1137849Y1044967D01*
X1139565Y1041993D01*
X1141993Y1039565D01*
X1144967Y1037849D01*
X1148283Y1036960D01*
X1151717D01*
X1153179Y1037352D01*
X1179761D01*
X1204352Y1012761D01*
Y907853D01*
X1203082Y907601D01*
X1201954Y910324D01*
X1199944Y912944D01*
X1199943Y912944D01*
X1173192Y939696D01*
X1172435Y941007D01*
X1170007Y943435D01*
X1167033Y945151D01*
X1163717Y946040D01*
X1160283D01*
X1156967Y945151D01*
X1153993Y943435D01*
X1151565Y941007D01*
X1149849Y938033D01*
X1148960Y934717D01*
Y931283D01*
X1149849Y927967D01*
X1151565Y924993D01*
X1153993Y922565D01*
X1155304Y921808D01*
X1178352Y898761D01*
Y788239D01*
X1093761Y703648D01*
X866955D01*
X862648Y707955D01*
Y754000D01*
X862217Y757274D01*
X860954Y760324D01*
X858944Y762944D01*
X858943Y762944D01*
X834924Y786963D01*
X835026Y787736D01*
X836348Y788211D01*
X837993Y786565D01*
X840967Y784849D01*
X844283Y783960D01*
X847717D01*
X851033Y784849D01*
X854007Y786565D01*
X856435Y788993D01*
X858151Y791967D01*
X859040Y795283D01*
Y798717D01*
X858648Y800179D01*
Y810000D01*
X858648Y810000D01*
X858217Y813274D01*
X856954Y816324D01*
X854944Y818944D01*
X817944Y855944D01*
X815324Y857954D01*
X814049Y858482D01*
X814302Y859752D01*
X826361D01*
X835808Y850304D01*
X836565Y848993D01*
X838993Y846565D01*
X841967Y844849D01*
X845283Y843960D01*
X848717D01*
X852033Y844849D01*
X855007Y846565D01*
X857435Y848993D01*
X859151Y851967D01*
X860040Y855283D01*
Y858717D01*
X859151Y862033D01*
X857435Y865007D01*
X855007Y867435D01*
X853696Y868192D01*
X840544Y881344D01*
X837924Y883354D01*
X834874Y884617D01*
X831600Y885048D01*
X831600Y885048D01*
X831187D01*
X830847Y886318D01*
X833007Y887565D01*
X835435Y889993D01*
X837151Y892967D01*
X838040Y896283D01*
Y899717D01*
X837151Y903033D01*
X835435Y906007D01*
X833007Y908435D01*
X830033Y910151D01*
X826717Y911040D01*
X823283D01*
X821075Y910448D01*
X809502D01*
X809249Y911718D01*
X810524Y912246D01*
X813144Y914256D01*
X836696Y937809D01*
X838007Y938565D01*
X840435Y940993D01*
X842151Y943967D01*
X843040Y947283D01*
Y950717D01*
X842151Y954033D01*
X840435Y957007D01*
X838007Y959435D01*
X835033Y961151D01*
X831717Y962040D01*
X828283D01*
X824967Y961151D01*
X821993Y959435D01*
X819565Y957007D01*
X818809Y955696D01*
X798961Y935848D01*
X780933D01*
X780593Y937118D01*
X783100Y938566D01*
X785434Y940900D01*
X787085Y943760D01*
X787940Y946949D01*
Y950251D01*
X787085Y953440D01*
X785434Y956300D01*
X783100Y958634D01*
X780240Y960285D01*
X778907Y960643D01*
Y961957D01*
X780240Y962315D01*
X783100Y963966D01*
X785434Y966300D01*
X787085Y969160D01*
X787940Y972349D01*
Y975651D01*
X787085Y978840D01*
X785434Y981700D01*
X783100Y984035D01*
X780240Y985685D01*
X778907Y986043D01*
Y987357D01*
X780240Y987715D01*
X783100Y989365D01*
X785434Y991700D01*
X787085Y994560D01*
X787940Y997749D01*
Y1001051D01*
X787085Y1004240D01*
X785434Y1007100D01*
X783100Y1009435D01*
X780240Y1011085D01*
X778907Y1011443D01*
Y1012757D01*
X780240Y1013115D01*
X783100Y1014765D01*
X785434Y1017100D01*
X787085Y1019960D01*
X787940Y1023149D01*
Y1026451D01*
X787085Y1029640D01*
X785434Y1032500D01*
X783100Y1034835D01*
X780240Y1036485D01*
X777051Y1037340D01*
X773749D01*
X770560Y1036485D01*
X767700Y1034835D01*
X765366Y1032500D01*
X763715Y1029640D01*
X762860Y1026451D01*
Y1023149D01*
X763715Y1019960D01*
X765366Y1017100D01*
X767700Y1014765D01*
X770560Y1013115D01*
X771893Y1012757D01*
Y1011443D01*
X770560Y1011085D01*
X767700Y1009435D01*
X765366Y1007100D01*
X763715Y1004240D01*
X762860Y1001051D01*
Y997749D01*
X763715Y994560D01*
X765366Y991700D01*
X767700Y989365D01*
X770560Y987715D01*
X771893Y987357D01*
Y986043D01*
X770560Y985685D01*
X767700Y984035D01*
X765366Y981700D01*
X763715Y978840D01*
X762860Y975651D01*
Y972349D01*
X763715Y969160D01*
X765366Y966300D01*
X767700Y963966D01*
X770560Y962315D01*
X771893Y961957D01*
Y960643D01*
X770560Y960285D01*
X767700Y958634D01*
X765366Y956300D01*
X763715Y953440D01*
X762860Y950251D01*
Y946949D01*
X763715Y943760D01*
X765366Y940900D01*
X767700Y938566D01*
X770560Y936915D01*
X771769Y936591D01*
X771779Y935273D01*
X771360Y935100D01*
X770560Y934885D01*
X769842Y934471D01*
X769076Y934154D01*
X768418Y933649D01*
X767700Y933234D01*
X767114Y932648D01*
X766456Y932144D01*
X765952Y931486D01*
X765366Y930900D01*
X764951Y930182D01*
X764446Y929524D01*
X764129Y928758D01*
X763715Y928040D01*
X763500Y927240D01*
X763183Y926474D01*
X763075Y925652D01*
X762860Y924851D01*
Y924022D01*
X762752Y923200D01*
X762860Y922378D01*
Y921549D01*
X763075Y920748D01*
X763183Y919926D01*
X763500Y919161D01*
X763715Y918360D01*
X764129Y917642D01*
X764446Y916876D01*
X764951Y916218D01*
X765366Y915500D01*
X765952Y914914D01*
X766456Y914256D01*
X767114Y913752D01*
X767700Y913166D01*
X768418Y912751D01*
X769076Y912246D01*
X769842Y911929D01*
X770560Y911515D01*
X771360Y911300D01*
X771633Y911187D01*
Y909813D01*
X771360Y909700D01*
X770560Y909485D01*
X769842Y909071D01*
X769076Y908754D01*
X768418Y908249D01*
X767700Y907834D01*
X767114Y907248D01*
X766456Y906744D01*
X765952Y906086D01*
X765366Y905500D01*
X764951Y904782D01*
X764446Y904124D01*
X764129Y903358D01*
X763715Y902640D01*
X763500Y901840D01*
X763183Y901074D01*
X763075Y900252D01*
X762860Y899451D01*
Y898622D01*
X762752Y897800D01*
X762860Y896978D01*
Y896149D01*
X763075Y895348D01*
X763183Y894526D01*
X763500Y893761D01*
X763715Y892960D01*
X764129Y892242D01*
X764446Y891476D01*
X764951Y890818D01*
X765366Y890100D01*
X765952Y889514D01*
X766456Y888856D01*
X767114Y888352D01*
X767700Y887766D01*
X768418Y887351D01*
X769076Y886846D01*
X769842Y886529D01*
X770560Y886115D01*
X771360Y885900D01*
X771633Y885787D01*
Y884413D01*
X771360Y884300D01*
X770560Y884085D01*
X769842Y883671D01*
X769076Y883354D01*
X768418Y882849D01*
X767700Y882434D01*
X767114Y881848D01*
X766456Y881344D01*
X765952Y880686D01*
X765366Y880100D01*
X764951Y879382D01*
X764446Y878724D01*
X764129Y877958D01*
X763715Y877240D01*
X763500Y876440D01*
X763183Y875674D01*
X763075Y874852D01*
X762860Y874051D01*
Y873222D01*
X762752Y872400D01*
X762860Y871578D01*
Y870749D01*
X763075Y869948D01*
X763183Y869126D01*
X763500Y868361D01*
X763715Y867560D01*
X764129Y866842D01*
X764446Y866076D01*
X764951Y865418D01*
X765366Y864700D01*
X765952Y864114D01*
X766456Y863456D01*
X767114Y862952D01*
X767700Y862365D01*
X768418Y861951D01*
X769076Y861446D01*
X769297Y861355D01*
X769734Y860211D01*
X769681Y859755D01*
X769518Y859540D01*
X762860D01*
Y847822D01*
X762752Y847000D01*
X762860Y846178D01*
Y834460D01*
X774578D01*
X775400Y834352D01*
X803761D01*
X833352Y804761D01*
Y801976D01*
X832082Y801545D01*
X830944Y803028D01*
X819228Y814744D01*
X816608Y816754D01*
X813558Y818017D01*
X810284Y818448D01*
X810284Y818448D01*
X775400D01*
X774578Y818340D01*
X773749D01*
X772948Y818125D01*
X772126Y818017D01*
X771360Y817700D01*
X770560Y817485D01*
X769842Y817071D01*
X769076Y816754D01*
X768418Y816249D01*
X767700Y815835D01*
X767114Y815248D01*
X766456Y814744D01*
X765952Y814086D01*
X765366Y813500D01*
X764951Y812782D01*
X764446Y812124D01*
X764129Y811358D01*
X763715Y810640D01*
X763500Y809839D01*
X763183Y809074D01*
X763075Y808252D01*
X762860Y807451D01*
Y806622D01*
X762752Y805800D01*
X762860Y804978D01*
Y804149D01*
X763075Y803348D01*
X763183Y802526D01*
X763500Y801760D01*
X763715Y800960D01*
X764129Y800242D01*
X764446Y799476D01*
X764951Y798818D01*
X765366Y798100D01*
X765952Y797514D01*
X766456Y796856D01*
X767114Y796352D01*
X767700Y795766D01*
X768418Y795351D01*
X769076Y794846D01*
X769842Y794529D01*
X770560Y794115D01*
X771360Y793900D01*
X771633Y793787D01*
Y792413D01*
X771360Y792300D01*
X770560Y792085D01*
X769842Y791671D01*
X769076Y791354D01*
X768418Y790849D01*
X767700Y790434D01*
X767114Y789848D01*
X766456Y789344D01*
X765952Y788686D01*
X765366Y788100D01*
X764951Y787382D01*
X764446Y786724D01*
X764129Y785958D01*
X763715Y785240D01*
X763500Y784439D01*
X763183Y783674D01*
X763075Y782852D01*
X762860Y782051D01*
Y781222D01*
X762752Y780400D01*
X762860Y779578D01*
Y778749D01*
X763075Y777948D01*
X763183Y777126D01*
X763500Y776360D01*
X763715Y775560D01*
X764129Y774842D01*
X764446Y774076D01*
X764951Y773418D01*
X765366Y772700D01*
X765952Y772114D01*
X766456Y771456D01*
X767114Y770952D01*
X767700Y770366D01*
X768418Y769951D01*
X769076Y769446D01*
X769842Y769129D01*
X770560Y768715D01*
X771360Y768500D01*
X771779Y768327D01*
X771769Y767009D01*
X770560Y766685D01*
X767700Y765034D01*
X765366Y762700D01*
X763715Y759840D01*
X762860Y756651D01*
Y753349D01*
X763715Y750160D01*
X765366Y747300D01*
X767700Y744966D01*
X770560Y743315D01*
X771893Y742957D01*
Y741643D01*
X770560Y741285D01*
X767700Y739634D01*
X765366Y737300D01*
X763715Y734440D01*
X762860Y731251D01*
Y727949D01*
X763715Y724760D01*
X765366Y721900D01*
X767700Y719566D01*
X770560Y717915D01*
X771893Y717557D01*
Y716243D01*
X770560Y715885D01*
X767700Y714234D01*
X765366Y711900D01*
X763715Y709040D01*
X762860Y705851D01*
Y702549D01*
X763715Y699360D01*
X765366Y696500D01*
X767700Y694165D01*
X770560Y692515D01*
X771893Y692157D01*
Y690843D01*
X770560Y690485D01*
X767700Y688835D01*
X765366Y686500D01*
X763715Y683640D01*
X762860Y680451D01*
Y677149D01*
X763715Y673960D01*
X765366Y671100D01*
X767700Y668765D01*
X770560Y667115D01*
X771893Y666757D01*
Y665443D01*
X770560Y665085D01*
X767700Y663435D01*
X765366Y661100D01*
X763715Y658240D01*
X762860Y655051D01*
Y654670D01*
X775400D01*
X787940D01*
Y655051D01*
X787085Y658240D01*
X785434Y661100D01*
X783100Y663435D01*
X780240Y665085D01*
X778907Y665443D01*
Y666757D01*
X780240Y667115D01*
X783100Y668765D01*
X785434Y671100D01*
X787085Y673960D01*
X787940Y677149D01*
Y680451D01*
X787085Y683640D01*
X785434Y686500D01*
X783100Y688835D01*
X780240Y690485D01*
X778907Y690843D01*
Y692157D01*
X780240Y692515D01*
X783100Y694165D01*
X785434Y696500D01*
X787085Y699360D01*
X787940Y702549D01*
Y705851D01*
X787085Y709040D01*
X785434Y711900D01*
X783100Y714234D01*
X780240Y715885D01*
X778907Y716243D01*
Y717557D01*
X780240Y717915D01*
X783100Y719566D01*
X785434Y721900D01*
X787085Y724760D01*
X787940Y727949D01*
Y731251D01*
X787085Y734440D01*
X785434Y737300D01*
X783100Y739634D01*
X780240Y741285D01*
X778907Y741643D01*
Y742957D01*
X780240Y743315D01*
X783100Y744966D01*
X785434Y747300D01*
X787085Y750160D01*
X787940Y753349D01*
Y756651D01*
X787711Y757506D01*
X788850Y758163D01*
X810352Y736661D01*
Y687000D01*
X810352Y687000D01*
X810783Y683726D01*
X812046Y680676D01*
X814056Y678056D01*
X834056Y658056D01*
X834056Y658056D01*
X836676Y656046D01*
X839726Y654783D01*
X843000Y654352D01*
X843000Y654352D01*
X1112000D01*
X1112000Y654352D01*
X1115274Y654783D01*
X1118324Y656046D01*
X1120944Y658056D01*
X1225944Y763056D01*
X1227954Y765676D01*
X1229217Y768726D01*
X1229648Y772000D01*
X1229648Y772000D01*
Y1018000D01*
X1229648Y1018000D01*
X1229217Y1021274D01*
X1227954Y1024324D01*
X1225944Y1026944D01*
X1193944Y1058944D01*
X1191324Y1060954D01*
X1188274Y1062217D01*
X1185000Y1062648D01*
X1185000Y1062648D01*
X1153179D01*
X1151717Y1063040D01*
D02*
G37*
G36*
X1267140Y1037340D02*
X1242060D01*
Y1012260D01*
X1248718D01*
X1248881Y1012045D01*
X1248544Y1010383D01*
X1246900Y1009435D01*
X1244566Y1007100D01*
X1242915Y1004240D01*
X1242060Y1001051D01*
Y997749D01*
X1242915Y994560D01*
X1244566Y991700D01*
X1246900Y989365D01*
X1249760Y987715D01*
X1251093Y987357D01*
Y986043D01*
X1249760Y985685D01*
X1246900Y984035D01*
X1244566Y981700D01*
X1242915Y978840D01*
X1242060Y975651D01*
Y972349D01*
X1242915Y969160D01*
X1244566Y966300D01*
X1246900Y963966D01*
X1249760Y962315D01*
X1251093Y961957D01*
Y960643D01*
X1249760Y960285D01*
X1246900Y958634D01*
X1244566Y956300D01*
X1242915Y953440D01*
X1242060Y950251D01*
Y946949D01*
X1242915Y943760D01*
X1244566Y940900D01*
X1246900Y938566D01*
X1249760Y936915D01*
X1251093Y936557D01*
Y935243D01*
X1249760Y934885D01*
X1246900Y933234D01*
X1244566Y930900D01*
X1242915Y928040D01*
X1242060Y924851D01*
Y921549D01*
X1242915Y918360D01*
X1244566Y915500D01*
X1246900Y913166D01*
X1249760Y911515D01*
X1251093Y911157D01*
Y909843D01*
X1249760Y909485D01*
X1246900Y907834D01*
X1244566Y905500D01*
X1242915Y902640D01*
X1242060Y899451D01*
Y896149D01*
X1242915Y892960D01*
X1244566Y890100D01*
X1246900Y887766D01*
X1249760Y886115D01*
X1252949Y885260D01*
X1256251D01*
X1259440Y886115D01*
X1262300Y887766D01*
X1264634Y890100D01*
X1266285Y892960D01*
X1267140Y896149D01*
Y899451D01*
X1266285Y902640D01*
X1264634Y905500D01*
X1262300Y907834D01*
X1259440Y909485D01*
X1258107Y909843D01*
Y911157D01*
X1259440Y911515D01*
X1262300Y913166D01*
X1264634Y915500D01*
X1266285Y918360D01*
X1267140Y921549D01*
Y924851D01*
X1266285Y928040D01*
X1264634Y930900D01*
X1262300Y933234D01*
X1259440Y934885D01*
X1258107Y935243D01*
Y936557D01*
X1259440Y936915D01*
X1262300Y938566D01*
X1264634Y940900D01*
X1266285Y943760D01*
X1267140Y946949D01*
Y950251D01*
X1266285Y953440D01*
X1264634Y956300D01*
X1262300Y958634D01*
X1259440Y960285D01*
X1258107Y960643D01*
Y961957D01*
X1259440Y962315D01*
X1262300Y963966D01*
X1264634Y966300D01*
X1266285Y969160D01*
X1267140Y972349D01*
Y975651D01*
X1266285Y978840D01*
X1264634Y981700D01*
X1262300Y984035D01*
X1259440Y985685D01*
X1258107Y986043D01*
Y987357D01*
X1259440Y987715D01*
X1262300Y989365D01*
X1264634Y991700D01*
X1266285Y994560D01*
X1267140Y997749D01*
Y1001051D01*
X1266285Y1004240D01*
X1264634Y1007100D01*
X1262300Y1009435D01*
X1260656Y1010383D01*
X1260319Y1012045D01*
X1260482Y1012260D01*
X1267140D01*
Y1037340D01*
D02*
G37*
G36*
X1163651Y883540D02*
X1160349D01*
X1157160Y882686D01*
X1154300Y881035D01*
X1151965Y878700D01*
X1150315Y875841D01*
X1149957Y874508D01*
X1148643D01*
X1148285Y875841D01*
X1146635Y878700D01*
X1144300Y881035D01*
X1141440Y882686D01*
X1138251Y883540D01*
X1137870D01*
Y871000D01*
Y858460D01*
X1138251D01*
X1141440Y859315D01*
X1144300Y860966D01*
X1146635Y863301D01*
X1148285Y866160D01*
X1148643Y867493D01*
X1149957D01*
X1150315Y866160D01*
X1151965Y863301D01*
X1154300Y860966D01*
X1157160Y859315D01*
X1160349Y858460D01*
X1163651D01*
X1166840Y859315D01*
X1169700Y860966D01*
X1172035Y863301D01*
X1173685Y866160D01*
X1174540Y869349D01*
Y872651D01*
X1173685Y875841D01*
X1172035Y878700D01*
X1169700Y881035D01*
X1166840Y882686D01*
X1163651Y883540D01*
D02*
G37*
G36*
X1135330D02*
X1134949D01*
X1131760Y882686D01*
X1128900Y881035D01*
X1126565Y878700D01*
X1124915Y875841D01*
X1124557Y874508D01*
X1123243D01*
X1122885Y875841D01*
X1121235Y878700D01*
X1118900Y881035D01*
X1116040Y882686D01*
X1112851Y883540D01*
X1109549D01*
X1106360Y882686D01*
X1103500Y881035D01*
X1101165Y878700D01*
X1099515Y875841D01*
X1099157Y874508D01*
X1097843D01*
X1097485Y875841D01*
X1095835Y878700D01*
X1093500Y881035D01*
X1090640Y882686D01*
X1087451Y883540D01*
X1084149D01*
X1080960Y882686D01*
X1078100Y881035D01*
X1075766Y878700D01*
X1074115Y875841D01*
X1073757Y874508D01*
X1072443D01*
X1072085Y875841D01*
X1070434Y878700D01*
X1068100Y881035D01*
X1065240Y882686D01*
X1062051Y883540D01*
X1058749D01*
X1055560Y882686D01*
X1052700Y881035D01*
X1050366Y878700D01*
X1048715Y875841D01*
X1048357Y874508D01*
X1047043D01*
X1046685Y875841D01*
X1045034Y878700D01*
X1042700Y881035D01*
X1039840Y882686D01*
X1036651Y883540D01*
X1033349D01*
X1030160Y882686D01*
X1027300Y881035D01*
X1024966Y878700D01*
X1023315Y875841D01*
X1022957Y874508D01*
X1021643D01*
X1021285Y875841D01*
X1019634Y878700D01*
X1017300Y881035D01*
X1014440Y882686D01*
X1011251Y883540D01*
X1007949D01*
X1004760Y882686D01*
X1001900Y881035D01*
X999566Y878700D01*
X998617Y877057D01*
X996955Y876720D01*
X996740Y876882D01*
Y883540D01*
X985470D01*
Y871000D01*
Y858460D01*
X996740D01*
Y865118D01*
X996955Y865281D01*
X998617Y864944D01*
X999566Y863301D01*
X1001900Y860966D01*
X1004760Y859315D01*
X1007949Y858460D01*
X1011251D01*
X1014440Y859315D01*
X1017300Y860966D01*
X1019634Y863301D01*
X1021285Y866160D01*
X1021643Y867493D01*
X1022957D01*
X1023315Y866160D01*
X1024966Y863301D01*
X1027300Y860966D01*
X1030160Y859315D01*
X1033349Y858460D01*
X1036651D01*
X1039840Y859315D01*
X1042700Y860966D01*
X1045034Y863301D01*
X1046685Y866160D01*
X1047043Y867493D01*
X1048357D01*
X1048715Y866160D01*
X1050366Y863301D01*
X1052700Y860966D01*
X1055560Y859315D01*
X1058749Y858460D01*
X1062051D01*
X1065240Y859315D01*
X1068100Y860966D01*
X1070434Y863301D01*
X1072085Y866160D01*
X1072443Y867493D01*
X1073757D01*
X1074115Y866160D01*
X1075766Y863301D01*
X1078100Y860966D01*
X1080960Y859315D01*
X1084149Y858460D01*
X1087451D01*
X1090640Y859315D01*
X1093500Y860966D01*
X1095835Y863301D01*
X1097485Y866160D01*
X1097843Y867493D01*
X1099157D01*
X1099515Y866160D01*
X1101165Y863301D01*
X1103500Y860966D01*
X1106360Y859315D01*
X1109549Y858460D01*
X1112851D01*
X1116040Y859315D01*
X1118900Y860966D01*
X1121235Y863301D01*
X1122885Y866160D01*
X1123243Y867493D01*
X1124557D01*
X1124915Y866160D01*
X1126565Y863301D01*
X1128900Y860966D01*
X1131760Y859315D01*
X1134949Y858460D01*
X1135330D01*
Y871000D01*
Y883540D01*
D02*
G37*
G36*
X982930D02*
X971660D01*
Y872270D01*
X982930D01*
Y883540D01*
D02*
G37*
G36*
X899540Y927730D02*
X887000D01*
X874460D01*
Y916460D01*
X880961D01*
X881301Y915190D01*
X879300Y914035D01*
X876965Y911700D01*
X875315Y908840D01*
X874460Y905651D01*
Y902349D01*
X875315Y899160D01*
X876965Y896300D01*
X879300Y893966D01*
X882160Y892315D01*
X882830Y892135D01*
Y890865D01*
X882160Y890685D01*
X879300Y889034D01*
X876965Y886700D01*
X875315Y883840D01*
X874460Y880651D01*
Y877349D01*
X875315Y874159D01*
X876965Y871300D01*
X879300Y868965D01*
X882160Y867314D01*
X885349Y866460D01*
X888651D01*
X891840Y867314D01*
X894700Y868965D01*
X897035Y871300D01*
X898685Y874159D01*
X899540Y877349D01*
Y880651D01*
X898685Y883840D01*
X897035Y886700D01*
X894700Y889034D01*
X891840Y890685D01*
X891170Y890865D01*
Y892135D01*
X891840Y892315D01*
X894700Y893966D01*
X897035Y896300D01*
X898685Y899160D01*
X899540Y902349D01*
Y905651D01*
X898685Y908840D01*
X897035Y911700D01*
X894700Y914035D01*
X892699Y915190D01*
X893039Y916460D01*
X899540D01*
Y927730D01*
D02*
G37*
G36*
X982930Y869730D02*
X971660D01*
Y858460D01*
X982930D01*
Y869730D01*
D02*
G37*
G36*
X899540Y863540D02*
X888270D01*
Y852270D01*
X899540D01*
Y863540D01*
D02*
G37*
G36*
X885730D02*
X874460D01*
Y852270D01*
X885730D01*
Y863540D01*
D02*
G37*
G36*
X1267140Y863140D02*
X1242060D01*
Y838060D01*
X1248718D01*
X1248881Y837844D01*
X1248544Y836183D01*
X1246900Y835235D01*
X1244566Y832900D01*
X1242915Y830040D01*
X1242060Y826851D01*
Y826470D01*
X1254600D01*
X1267140D01*
Y826851D01*
X1266285Y830040D01*
X1264634Y832900D01*
X1262300Y835235D01*
X1260656Y836183D01*
X1260319Y837844D01*
X1260482Y838060D01*
X1267140D01*
Y863140D01*
D02*
G37*
G36*
Y823930D02*
X1254600D01*
X1242060D01*
Y823549D01*
X1242915Y820360D01*
X1244566Y817500D01*
X1246900Y815165D01*
X1249760Y813515D01*
X1251093Y813157D01*
Y811843D01*
X1249760Y811485D01*
X1246900Y809835D01*
X1244566Y807500D01*
X1242915Y804640D01*
X1242060Y801451D01*
Y801070D01*
X1254600D01*
X1267140D01*
Y801451D01*
X1266285Y804640D01*
X1264634Y807500D01*
X1262300Y809835D01*
X1259440Y811485D01*
X1258107Y811843D01*
Y813157D01*
X1259440Y813515D01*
X1262300Y815165D01*
X1264634Y817500D01*
X1266285Y820360D01*
X1267140Y823549D01*
Y823930D01*
D02*
G37*
G36*
X899540Y849730D02*
X887000D01*
X874460D01*
Y838460D01*
X880962D01*
X881302Y837190D01*
X879300Y836034D01*
X876965Y833699D01*
X875315Y830840D01*
X874460Y827651D01*
Y824349D01*
X875315Y821160D01*
X876965Y818300D01*
X879300Y815965D01*
X882160Y814314D01*
X882829Y814135D01*
Y812865D01*
X882160Y812685D01*
X879300Y811035D01*
X876965Y808700D01*
X875315Y805840D01*
X874460Y802651D01*
Y799349D01*
X875315Y796160D01*
X876965Y793300D01*
X879300Y790966D01*
X882160Y789315D01*
X885349Y788460D01*
X888651D01*
X891840Y789315D01*
X894700Y790966D01*
X897035Y793300D01*
X898685Y796160D01*
X899540Y799349D01*
Y802651D01*
X898685Y805840D01*
X897035Y808700D01*
X894700Y811035D01*
X891840Y812685D01*
X891171Y812865D01*
Y814135D01*
X891840Y814314D01*
X894700Y815965D01*
X897035Y818300D01*
X898685Y821160D01*
X899540Y824349D01*
Y827651D01*
X898685Y830840D01*
X897035Y833699D01*
X894700Y836034D01*
X892698Y837190D01*
X893038Y838460D01*
X899540D01*
Y849730D01*
D02*
G37*
G36*
X1123540Y785540D02*
X1098460D01*
Y778882D01*
X1098244Y778719D01*
X1096583Y779056D01*
X1095635Y780700D01*
X1093300Y783035D01*
X1090440Y784685D01*
X1087251Y785540D01*
X1083949D01*
X1080760Y784685D01*
X1077900Y783035D01*
X1075565Y780700D01*
X1073915Y777840D01*
X1073557Y776507D01*
X1072243D01*
X1071885Y777840D01*
X1070235Y780700D01*
X1067900Y783035D01*
X1065040Y784685D01*
X1061851Y785540D01*
X1058549D01*
X1055360Y784685D01*
X1052500Y783035D01*
X1050165Y780700D01*
X1048515Y777840D01*
X1048157Y776507D01*
X1046843D01*
X1046485Y777840D01*
X1044835Y780700D01*
X1042500Y783035D01*
X1039640Y784685D01*
X1036451Y785540D01*
X1033149D01*
X1029960Y784685D01*
X1027100Y783035D01*
X1024765Y780700D01*
X1023115Y777840D01*
X1022260Y774651D01*
Y771349D01*
X1023115Y768160D01*
X1024765Y765300D01*
X1027100Y762965D01*
X1029960Y761315D01*
X1033149Y760460D01*
X1036451D01*
X1039640Y761315D01*
X1042500Y762965D01*
X1044835Y765300D01*
X1046485Y768160D01*
X1046843Y769493D01*
X1048157D01*
X1048515Y768160D01*
X1050165Y765300D01*
X1052500Y762965D01*
X1055360Y761315D01*
X1058549Y760460D01*
X1061851D01*
X1065040Y761315D01*
X1067900Y762965D01*
X1070235Y765300D01*
X1071885Y768160D01*
X1072243Y769493D01*
X1073557D01*
X1073915Y768160D01*
X1075565Y765300D01*
X1077900Y762965D01*
X1080760Y761315D01*
X1083949Y760460D01*
X1087251D01*
X1090440Y761315D01*
X1093300Y762965D01*
X1095635Y765300D01*
X1096583Y766944D01*
X1098244Y767281D01*
X1098460Y767118D01*
Y760460D01*
X1123540D01*
Y785540D01*
D02*
G37*
G36*
X899270Y785810D02*
X888000D01*
Y774540D01*
X899270D01*
Y785810D01*
D02*
G37*
G36*
X885460D02*
X874190D01*
Y774540D01*
X885460D01*
Y785810D01*
D02*
G37*
G36*
X899270Y772000D02*
X886730D01*
X874190D01*
Y760730D01*
X880692D01*
X881032Y759460D01*
X879030Y758304D01*
X876695Y755969D01*
X875045Y753110D01*
X874190Y749921D01*
Y746619D01*
X875045Y743429D01*
X876695Y740570D01*
X879030Y738235D01*
X881890Y736584D01*
X882560Y736405D01*
Y735135D01*
X881890Y734955D01*
X879030Y733304D01*
X876695Y730969D01*
X875045Y728110D01*
X874190Y724921D01*
Y721619D01*
X875045Y718429D01*
X876695Y715570D01*
X879030Y713235D01*
X881890Y711584D01*
X885079Y710730D01*
X888381D01*
X891570Y711584D01*
X894430Y713235D01*
X896765Y715570D01*
X898415Y718429D01*
X899270Y721619D01*
Y724921D01*
X898415Y728110D01*
X896765Y730969D01*
X894430Y733304D01*
X891570Y734955D01*
X890900Y735135D01*
Y736405D01*
X891570Y736584D01*
X894430Y738235D01*
X896765Y740570D01*
X898415Y743429D01*
X899270Y746619D01*
Y749921D01*
X898415Y753110D01*
X896765Y755969D01*
X894430Y758304D01*
X892428Y759460D01*
X892768Y760730D01*
X899270D01*
Y772000D01*
D02*
G37*
G36*
X1267140Y798530D02*
X1254600D01*
X1242060D01*
Y798149D01*
X1242915Y794960D01*
X1244566Y792100D01*
X1246900Y789765D01*
X1249760Y788115D01*
X1251093Y787757D01*
Y786443D01*
X1249760Y786085D01*
X1246900Y784435D01*
X1244566Y782100D01*
X1242915Y779240D01*
X1242060Y776051D01*
Y772749D01*
X1242915Y769560D01*
X1244566Y766700D01*
X1246900Y764365D01*
X1249760Y762715D01*
X1251093Y762357D01*
Y761043D01*
X1249760Y760685D01*
X1246900Y759035D01*
X1244566Y756700D01*
X1242915Y753840D01*
X1242060Y750651D01*
Y747349D01*
X1242915Y744160D01*
X1244566Y741300D01*
X1246900Y738966D01*
X1249760Y737315D01*
X1251093Y736957D01*
Y735643D01*
X1249760Y735285D01*
X1246900Y733634D01*
X1244566Y731300D01*
X1242915Y728440D01*
X1242060Y725251D01*
Y721949D01*
X1242915Y718760D01*
X1244566Y715900D01*
X1246900Y713566D01*
X1249760Y711915D01*
X1251093Y711557D01*
Y710243D01*
X1249760Y709885D01*
X1246900Y708234D01*
X1244566Y705900D01*
X1242915Y703040D01*
X1242060Y699851D01*
Y696549D01*
X1242915Y693360D01*
X1244566Y690500D01*
X1246900Y688166D01*
X1249760Y686515D01*
X1251093Y686157D01*
Y684843D01*
X1249760Y684485D01*
X1246900Y682834D01*
X1244566Y680500D01*
X1242915Y677640D01*
X1242060Y674451D01*
Y671149D01*
X1242915Y667960D01*
X1244566Y665100D01*
X1246900Y662766D01*
X1249760Y661115D01*
X1252949Y660260D01*
X1256251D01*
X1259440Y661115D01*
X1262300Y662766D01*
X1264634Y665100D01*
X1266285Y667960D01*
X1267140Y671149D01*
Y674451D01*
X1266285Y677640D01*
X1264634Y680500D01*
X1262300Y682834D01*
X1259440Y684485D01*
X1258107Y684843D01*
Y686157D01*
X1259440Y686515D01*
X1262300Y688166D01*
X1264634Y690500D01*
X1266285Y693360D01*
X1267140Y696549D01*
Y699851D01*
X1266285Y703040D01*
X1264634Y705900D01*
X1262300Y708234D01*
X1259440Y709885D01*
X1258107Y710243D01*
Y711557D01*
X1259440Y711915D01*
X1262300Y713566D01*
X1264634Y715900D01*
X1266285Y718760D01*
X1267140Y721949D01*
Y725251D01*
X1266285Y728440D01*
X1264634Y731300D01*
X1262300Y733634D01*
X1259440Y735285D01*
X1258107Y735643D01*
Y736957D01*
X1259440Y737315D01*
X1262300Y738966D01*
X1264634Y741300D01*
X1266285Y744160D01*
X1267140Y747349D01*
Y750651D01*
X1266285Y753840D01*
X1264634Y756700D01*
X1262300Y759035D01*
X1259440Y760685D01*
X1258107Y761043D01*
Y762357D01*
X1259440Y762715D01*
X1262300Y764365D01*
X1264634Y766700D01*
X1266285Y769560D01*
X1267140Y772749D01*
Y776051D01*
X1266285Y779240D01*
X1264634Y782100D01*
X1262300Y784435D01*
X1259440Y786085D01*
X1258107Y786443D01*
Y787757D01*
X1259440Y788115D01*
X1262300Y789765D01*
X1264634Y792100D01*
X1266285Y794960D01*
X1267140Y798149D01*
Y798530D01*
D02*
G37*
G36*
X1182651Y637540D02*
X1182270D01*
Y626270D01*
X1193540D01*
Y626651D01*
X1192685Y629841D01*
X1191034Y632700D01*
X1188700Y635035D01*
X1185840Y636686D01*
X1182651Y637540D01*
D02*
G37*
G36*
X1179730D02*
X1179349D01*
X1176160Y636686D01*
X1173300Y635035D01*
X1170965Y632700D01*
X1169315Y629841D01*
X1168460Y626651D01*
Y626270D01*
X1179730D01*
Y637540D01*
D02*
G37*
G36*
X924651D02*
X924270D01*
Y626270D01*
X935540D01*
Y626651D01*
X934685Y629841D01*
X933035Y632700D01*
X930700Y635035D01*
X927840Y636686D01*
X924651Y637540D01*
D02*
G37*
G36*
X921730D02*
X921349D01*
X918160Y636686D01*
X915300Y635035D01*
X912965Y632700D01*
X911315Y629841D01*
X910460Y626651D01*
Y626270D01*
X921730D01*
Y637540D01*
D02*
G37*
G36*
X1054651Y636540D02*
X1054270D01*
Y625270D01*
X1065540D01*
Y625651D01*
X1064685Y628840D01*
X1063035Y631700D01*
X1060700Y634035D01*
X1057840Y635686D01*
X1054651Y636540D01*
D02*
G37*
G36*
X1051730D02*
X1051349D01*
X1048160Y635686D01*
X1045300Y634035D01*
X1042965Y631700D01*
X1041315Y628840D01*
X1040460Y625651D01*
Y625270D01*
X1051730D01*
Y636540D01*
D02*
G37*
G36*
X787940Y652130D02*
X775400D01*
X762860D01*
Y651749D01*
X763715Y648560D01*
X765366Y645700D01*
X767700Y643365D01*
X769344Y642417D01*
X769681Y640755D01*
X769518Y640540D01*
X762860D01*
Y615460D01*
X787940D01*
Y640540D01*
X781282D01*
X781119Y640755D01*
X781456Y642417D01*
X783100Y643365D01*
X785434Y645700D01*
X787085Y648560D01*
X787940Y651749D01*
Y652130D01*
D02*
G37*
G36*
X1193540Y623730D02*
X1182270D01*
Y612460D01*
X1182651D01*
X1185840Y613315D01*
X1188700Y614966D01*
X1191034Y617300D01*
X1192685Y620160D01*
X1193540Y623349D01*
Y623730D01*
D02*
G37*
G36*
X1179730D02*
X1168460D01*
Y623349D01*
X1169315Y620160D01*
X1170965Y617300D01*
X1173300Y614966D01*
X1176160Y613315D01*
X1179349Y612460D01*
X1179730D01*
Y623730D01*
D02*
G37*
G36*
X1143540Y637540D02*
X1118460D01*
Y612460D01*
X1143540D01*
Y637540D01*
D02*
G37*
G36*
X935540Y623730D02*
X924270D01*
Y612460D01*
X924651D01*
X927840Y613315D01*
X930700Y614966D01*
X933035Y617300D01*
X934685Y620160D01*
X935540Y623349D01*
Y623730D01*
D02*
G37*
G36*
X921730D02*
X910460D01*
Y623349D01*
X911315Y620160D01*
X912965Y617300D01*
X915300Y614966D01*
X918160Y613315D01*
X921349Y612460D01*
X921730D01*
Y623730D01*
D02*
G37*
G36*
X885540Y637540D02*
X860460D01*
Y612460D01*
X885540D01*
Y637540D01*
D02*
G37*
G36*
X1065540Y622730D02*
X1054270D01*
Y611460D01*
X1054651D01*
X1057840Y612315D01*
X1060700Y613966D01*
X1063035Y616301D01*
X1064685Y619160D01*
X1065540Y622349D01*
Y622730D01*
D02*
G37*
G36*
X1051730D02*
X1040460D01*
Y622349D01*
X1041315Y619160D01*
X1042965Y616301D01*
X1045300Y613966D01*
X1048160Y612315D01*
X1051349Y611460D01*
X1051730D01*
Y622730D01*
D02*
G37*
G36*
X1015540Y636540D02*
X990460D01*
Y611460D01*
X1015540D01*
Y636540D01*
D02*
G37*
G36*
X1255717Y597040D02*
X1255270D01*
Y585270D01*
X1267040D01*
Y585717D01*
X1266151Y589033D01*
X1264435Y592007D01*
X1262007Y594435D01*
X1259033Y596151D01*
X1255717Y597040D01*
D02*
G37*
G36*
X1252730D02*
X1252283D01*
X1248967Y596151D01*
X1245993Y594435D01*
X1243565Y592007D01*
X1241849Y589033D01*
X1240960Y585717D01*
Y585270D01*
X1252730D01*
Y597040D01*
D02*
G37*
G36*
X775717Y593040D02*
X775270D01*
Y581270D01*
X787040D01*
Y581717D01*
X786151Y585033D01*
X784435Y588007D01*
X782007Y590435D01*
X779033Y592151D01*
X775717Y593040D01*
D02*
G37*
G36*
X772730D02*
X772283D01*
X768967Y592151D01*
X765993Y590435D01*
X763565Y588007D01*
X761849Y585033D01*
X760960Y581717D01*
Y581270D01*
X772730D01*
Y593040D01*
D02*
G37*
G36*
X1267040Y582730D02*
X1255270D01*
Y570960D01*
X1255717D01*
X1259033Y571849D01*
X1262007Y573565D01*
X1264435Y575993D01*
X1266151Y578967D01*
X1267040Y582283D01*
Y582730D01*
D02*
G37*
G36*
X1252730D02*
X1240960D01*
Y582283D01*
X1241849Y578967D01*
X1243565Y575993D01*
X1245993Y573565D01*
X1248967Y571849D01*
X1252283Y570960D01*
X1252730D01*
Y582730D01*
D02*
G37*
G36*
X787040Y578730D02*
X775270D01*
Y566960D01*
X775717D01*
X779033Y567849D01*
X782007Y569565D01*
X784435Y571993D01*
X786151Y574967D01*
X787040Y578283D01*
Y578730D01*
D02*
G37*
G36*
X772730D02*
X760960D01*
Y578283D01*
X761849Y574967D01*
X763565Y571993D01*
X765993Y569565D01*
X768967Y567849D01*
X772283Y566960D01*
X772730D01*
Y578730D01*
D02*
G37*
%LPD*%
G36*
X809352Y788845D02*
Y782000D01*
X809352Y782000D01*
X809783Y778726D01*
X811046Y775676D01*
X813056Y773056D01*
X837352Y748761D01*
Y702716D01*
X837352Y702716D01*
X837783Y699442D01*
X839046Y696392D01*
X841056Y693772D01*
X852772Y682056D01*
X854255Y680918D01*
X853824Y679648D01*
X848239D01*
X835648Y692239D01*
Y741900D01*
X835648Y741900D01*
X835217Y745174D01*
X833954Y748224D01*
X831944Y750844D01*
X793444Y789344D01*
X790824Y791354D01*
X789549Y791882D01*
X789802Y793152D01*
X805045D01*
X809352Y788845D01*
D02*
G37*
D10*
X804200Y923200D02*
X830000Y949000D01*
X775400Y805800D02*
X810284D01*
X822000Y782000D02*
X850000Y754000D01*
X822000Y782000D02*
Y794084D01*
X810284Y805800D02*
X822000Y794084D01*
X1099000Y691000D02*
X1191000Y783000D01*
X850000Y702716D02*
Y754000D01*
Y702716D02*
X861716Y691000D01*
X1191000Y783000D02*
Y904000D01*
X1162000Y933000D02*
X1191000Y904000D01*
X861716Y691000D02*
X1099000D01*
X775400Y780400D02*
X784500D01*
X823000Y687000D02*
X843000Y667000D01*
X1112000D01*
X1217000Y772000D01*
Y1018000D01*
X1150000Y1050000D02*
X1185000D01*
X823000Y687000D02*
Y741900D01*
X1185000Y1050000D02*
X1217000Y1018000D01*
X784500Y780400D02*
X823000Y741900D01*
X824800Y897800D02*
X825000Y898000D01*
X775400Y897800D02*
X824800D01*
X775400Y872400D02*
X831600D01*
X847000Y857000D01*
X846000Y797000D02*
Y810000D01*
X775400Y847000D02*
X809000D01*
X846000Y810000D01*
X775400Y923200D02*
X804200D01*
D11*
X775400Y805800D02*
D03*
Y780400D02*
D03*
Y729600D02*
D03*
Y678800D02*
D03*
Y653400D02*
D03*
Y704200D02*
D03*
Y755000D02*
D03*
X1254600Y672800D02*
D03*
Y698200D02*
D03*
Y749000D02*
D03*
Y799800D02*
D03*
Y825200D02*
D03*
Y774400D02*
D03*
Y723600D02*
D03*
Y948600D02*
D03*
Y999400D02*
D03*
Y974000D02*
D03*
Y923200D02*
D03*
Y897800D02*
D03*
X775400Y1024800D02*
D03*
Y999400D02*
D03*
Y948600D02*
D03*
Y897800D02*
D03*
Y872400D02*
D03*
Y923200D02*
D03*
Y974000D02*
D03*
X1053000Y624000D02*
D03*
X1181000Y625000D02*
D03*
X923000D02*
D03*
X1111200Y1005000D02*
D03*
X1060400D02*
D03*
X1009600D02*
D03*
X1035000D02*
D03*
X1085800D02*
D03*
X1136600D02*
D03*
X1162000D02*
D03*
X1111200Y871000D02*
D03*
X1060400D02*
D03*
X1009600D02*
D03*
X1035000D02*
D03*
X1085800D02*
D03*
X1136600D02*
D03*
X1162000D02*
D03*
X1034800Y773000D02*
D03*
X1060200D02*
D03*
X1085600D02*
D03*
X887000Y982000D02*
D03*
Y957000D02*
D03*
X886730Y748270D02*
D03*
Y723270D02*
D03*
X887000Y904000D02*
D03*
Y879000D02*
D03*
Y826000D02*
D03*
Y801000D02*
D03*
D12*
X775400Y628000D02*
D03*
X1254600Y850600D02*
D03*
Y1024800D02*
D03*
X775400Y847000D02*
D03*
X887000Y1007000D02*
D03*
X886730Y773270D02*
D03*
X887000Y929000D02*
D03*
Y851000D02*
D03*
D13*
X1003000Y624000D02*
D03*
X1131000Y625000D02*
D03*
X873000D02*
D03*
X984200Y1005000D02*
D03*
Y871000D02*
D03*
X1111000Y773000D02*
D03*
D14*
X1254000Y584000D02*
D03*
X774000Y580000D02*
D03*
X1150000Y1050000D02*
D03*
X1162000Y933000D02*
D03*
X830000Y949000D02*
D03*
X846000Y797000D02*
D03*
X847000Y857000D02*
D03*
X825000Y898000D02*
D03*
M02*
