G04*
G04 #@! TF.GenerationSoftware,Altium Limited,Altium Designer,22.4.2 (48)*
G04*
G04 Layer_Physical_Order=2*
G04 Layer_Color=16711680*
%FSLAX44Y44*%
%MOMM*%
G71*
G04*
G04 #@! TF.SameCoordinates,3517102E-CA2B-4814-AB3A-28068C8F3B0D*
G04*
G04*
G04 #@! TF.FilePolarity,Positive*
G04*
G01*
G75*
%ADD10C,2.0000*%
%ADD11C,2.0000*%
%ADD12R,2.0000X2.0000*%
%ADD13R,2.0000X2.0000*%
%ADD14C,2.1000*%
%ADD15C,0.2540*%
G36*
X1277115Y1056391D02*
Y553885D01*
X753885D01*
Y1059391D01*
X769609Y1075115D01*
X1258391D01*
X1277115Y1056391D01*
D02*
G37*
%LPC*%
G36*
X1008330Y1017540D02*
X1007949D01*
X1004760Y1016685D01*
X1001900Y1015034D01*
X999566Y1012700D01*
X998617Y1011056D01*
X996955Y1010719D01*
X996740Y1010882D01*
Y1017540D01*
X985470D01*
Y1005000D01*
Y992460D01*
X996740D01*
Y999118D01*
X996955Y999281D01*
X998617Y998944D01*
X999566Y997300D01*
X1001900Y994966D01*
X1004760Y993315D01*
X1007949Y992460D01*
X1008330D01*
Y1005000D01*
Y1017540D01*
D02*
G37*
G36*
X1151717Y1063040D02*
X1148283D01*
X1144967Y1062151D01*
X1141993Y1060435D01*
X1139565Y1058007D01*
X1138809Y1056696D01*
X1127656Y1045544D01*
X1125646Y1042924D01*
X1124383Y1039874D01*
X1123952Y1036600D01*
X1123952Y1036600D01*
Y1010533D01*
X1122682Y1010193D01*
X1121235Y1012700D01*
X1118900Y1015034D01*
X1116040Y1016685D01*
X1112851Y1017540D01*
X1109549D01*
X1106360Y1016685D01*
X1103500Y1015034D01*
X1101165Y1012700D01*
X1099515Y1009840D01*
X1099157Y1008507D01*
X1097843D01*
X1097485Y1009840D01*
X1095835Y1012700D01*
X1093500Y1015034D01*
X1090640Y1016685D01*
X1087451Y1017540D01*
X1084149D01*
X1080960Y1016685D01*
X1078100Y1015034D01*
X1075766Y1012700D01*
X1074115Y1009840D01*
X1073757Y1008507D01*
X1072443D01*
X1072085Y1009840D01*
X1070434Y1012700D01*
X1068100Y1015034D01*
X1065240Y1016685D01*
X1062051Y1017540D01*
X1058749D01*
X1055560Y1016685D01*
X1052700Y1015034D01*
X1050366Y1012700D01*
X1048715Y1009840D01*
X1048357Y1008507D01*
X1047043D01*
X1046685Y1009840D01*
X1045034Y1012700D01*
X1042700Y1015034D01*
X1039840Y1016685D01*
X1036651Y1017540D01*
X1036270D01*
Y1005000D01*
Y992460D01*
X1036651D01*
X1039840Y993315D01*
X1042700Y994966D01*
X1045034Y997300D01*
X1046685Y1000160D01*
X1047043Y1001493D01*
X1048357D01*
X1048715Y1000160D01*
X1050366Y997300D01*
X1052700Y994966D01*
X1055560Y993315D01*
X1058749Y992460D01*
X1062051D01*
X1065240Y993315D01*
X1068100Y994966D01*
X1070434Y997300D01*
X1072085Y1000160D01*
X1072443Y1001493D01*
X1073757D01*
X1074115Y1000160D01*
X1075766Y997300D01*
X1078100Y994966D01*
X1080960Y993315D01*
X1084149Y992460D01*
X1087451D01*
X1090640Y993315D01*
X1093500Y994966D01*
X1095835Y997300D01*
X1097485Y1000160D01*
X1097843Y1001493D01*
X1099157D01*
X1099515Y1000160D01*
X1101165Y997300D01*
X1103500Y994966D01*
X1106360Y993315D01*
X1109549Y992460D01*
X1112851D01*
X1116040Y993315D01*
X1118900Y994966D01*
X1121235Y997300D01*
X1122885Y1000160D01*
X1123209Y1001369D01*
X1124527Y1001379D01*
X1124700Y1000960D01*
X1124915Y1000160D01*
X1125329Y999442D01*
X1125646Y998676D01*
X1126151Y998018D01*
X1126565Y997300D01*
X1127152Y996714D01*
X1127656Y996056D01*
X1128314Y995552D01*
X1128900Y994966D01*
X1129618Y994551D01*
X1130276Y994046D01*
X1131042Y993729D01*
X1131760Y993315D01*
X1132561Y993100D01*
X1133326Y992783D01*
X1134148Y992675D01*
X1134949Y992460D01*
X1135778D01*
X1136600Y992352D01*
X1137422Y992460D01*
X1138251D01*
X1139052Y992675D01*
X1139874Y992783D01*
X1140639Y993100D01*
X1141440Y993315D01*
X1142158Y993729D01*
X1142924Y994046D01*
X1143582Y994551D01*
X1144300Y994966D01*
X1144886Y995552D01*
X1145544Y996056D01*
X1146048Y996714D01*
X1146635Y997300D01*
X1147049Y998018D01*
X1147554Y998676D01*
X1147871Y999442D01*
X1148082Y999807D01*
X1149352Y999467D01*
Y936179D01*
X1148960Y934717D01*
Y931283D01*
X1149849Y927967D01*
X1151565Y924993D01*
X1153993Y922565D01*
X1156967Y920849D01*
X1160283Y919960D01*
X1163717D01*
X1167033Y920849D01*
X1170007Y922565D01*
X1172435Y924993D01*
X1174151Y927967D01*
X1175040Y931283D01*
Y934717D01*
X1174648Y936179D01*
Y1005000D01*
X1174540Y1005822D01*
Y1006651D01*
X1174325Y1007452D01*
X1174217Y1008274D01*
X1173900Y1009040D01*
X1173685Y1009840D01*
X1173271Y1010558D01*
X1172954Y1011324D01*
X1172449Y1011982D01*
X1172035Y1012700D01*
X1171448Y1013286D01*
X1170944Y1013944D01*
X1170286Y1014448D01*
X1169700Y1015034D01*
X1168982Y1015449D01*
X1168324Y1015954D01*
X1167558Y1016271D01*
X1166840Y1016685D01*
X1166040Y1016900D01*
X1165274Y1017217D01*
X1164452Y1017325D01*
X1163651Y1017540D01*
X1162822D01*
X1162000Y1017648D01*
X1161178Y1017540D01*
X1160349D01*
X1159548Y1017325D01*
X1158726Y1017217D01*
X1157961Y1016900D01*
X1157160Y1016685D01*
X1156442Y1016271D01*
X1155676Y1015954D01*
X1155018Y1015449D01*
X1154300Y1015034D01*
X1153714Y1014448D01*
X1153056Y1013944D01*
X1152552Y1013286D01*
X1151965Y1012700D01*
X1151551Y1011982D01*
X1151046Y1011324D01*
X1150729Y1010558D01*
X1150518Y1010193D01*
X1149248Y1010533D01*
Y1031361D01*
X1156696Y1038809D01*
X1158007Y1039565D01*
X1160435Y1041993D01*
X1162151Y1044967D01*
X1163040Y1048283D01*
Y1051717D01*
X1162151Y1055033D01*
X1160435Y1058007D01*
X1158007Y1060435D01*
X1155033Y1062151D01*
X1151717Y1063040D01*
D02*
G37*
G36*
X1033730Y1017540D02*
X1033349D01*
X1030160Y1016685D01*
X1027300Y1015034D01*
X1024966Y1012700D01*
X1023315Y1009840D01*
X1022957Y1008507D01*
X1021643D01*
X1021285Y1009840D01*
X1019634Y1012700D01*
X1017300Y1015034D01*
X1014440Y1016685D01*
X1011251Y1017540D01*
X1010870D01*
Y1005000D01*
Y992460D01*
X1011251D01*
X1014440Y993315D01*
X1017300Y994966D01*
X1019634Y997300D01*
X1021285Y1000160D01*
X1021643Y1001493D01*
X1022957D01*
X1023315Y1000160D01*
X1024966Y997300D01*
X1027300Y994966D01*
X1030160Y993315D01*
X1033349Y992460D01*
X1033730D01*
Y1005000D01*
Y1017540D01*
D02*
G37*
G36*
X899540Y1019540D02*
X888270D01*
Y1008270D01*
X899540D01*
Y1019540D01*
D02*
G37*
G36*
X885730D02*
X874460D01*
Y1008270D01*
X885730D01*
Y1019540D01*
D02*
G37*
G36*
X982930Y1017540D02*
X971660D01*
Y1006270D01*
X982930D01*
Y1017540D01*
D02*
G37*
G36*
Y1003730D02*
X971660D01*
Y992460D01*
X982930D01*
Y1003730D01*
D02*
G37*
G36*
X899540Y1005730D02*
X887000D01*
X874460D01*
Y994460D01*
X880961D01*
X881442Y993271D01*
X880676Y992954D01*
X880018Y992449D01*
X879301Y992035D01*
X878714Y991449D01*
X878057Y990944D01*
X877552Y990286D01*
X876966Y989700D01*
X876551Y988982D01*
X876047Y988325D01*
X875729Y987559D01*
X875315Y986841D01*
X875100Y986040D01*
X874783Y985274D01*
X874675Y984452D01*
X874460Y983651D01*
Y982822D01*
X874352Y982000D01*
X874460Y981179D01*
Y980350D01*
X874675Y979549D01*
X874783Y978727D01*
X875100Y977961D01*
X875315Y977160D01*
X875729Y976442D01*
X876047Y975676D01*
X876551Y975018D01*
X876966Y974301D01*
X877552Y973715D01*
X878057Y973057D01*
X878714Y972552D01*
X879301Y971966D01*
X880018Y971551D01*
X880676Y971047D01*
X880986Y970918D01*
X880733Y969648D01*
X868333D01*
X868333Y969648D01*
X865060Y969217D01*
X862009Y967954D01*
X859389Y965944D01*
X855094Y961648D01*
X833179D01*
X831717Y962040D01*
X828283D01*
X824967Y961151D01*
X821993Y959435D01*
X819565Y957007D01*
X817849Y954033D01*
X816960Y950717D01*
Y947283D01*
X817849Y943967D01*
X819565Y940993D01*
X821993Y938565D01*
X824967Y936849D01*
X828283Y935960D01*
X831717D01*
X833179Y936352D01*
X860333D01*
X860333Y936352D01*
X863606Y936783D01*
X866657Y938046D01*
X869277Y940056D01*
X873572Y944352D01*
X887000D01*
X887822Y944460D01*
X888651D01*
X889452Y944675D01*
X890274Y944783D01*
X891040Y945100D01*
X891841Y945315D01*
X892558Y945729D01*
X893324Y946047D01*
X893982Y946551D01*
X894700Y946966D01*
X895286Y947552D01*
X895944Y948056D01*
X896449Y948714D01*
X897035Y949301D01*
X897449Y950018D01*
X897954Y950676D01*
X898271Y951442D01*
X898686Y952160D01*
X898900Y952961D01*
X899217Y953727D01*
X899326Y954548D01*
X899540Y955349D01*
Y956178D01*
X899648Y957000D01*
X899540Y957822D01*
Y958651D01*
X899326Y959452D01*
X899217Y960274D01*
X898900Y961040D01*
X898686Y961840D01*
X898271Y962558D01*
X897954Y963324D01*
X897449Y963982D01*
X897035Y964700D01*
X896449Y965286D01*
X895944Y965944D01*
X895286Y966449D01*
X894700Y967035D01*
X893982Y967449D01*
X893324Y967954D01*
X893015Y968082D01*
X893267Y969352D01*
X946760D01*
X996952Y919161D01*
Y884723D01*
X996740Y883540D01*
X985470D01*
Y871000D01*
Y858460D01*
X995352D01*
Y642741D01*
X994046Y641040D01*
X992783Y637990D01*
X992592Y636540D01*
X990460D01*
Y624822D01*
X990352Y624000D01*
X990460Y623178D01*
Y611460D01*
X1002178D01*
X1003000Y611352D01*
X1003822Y611460D01*
X1015540D01*
Y619137D01*
X1015954Y619676D01*
X1017217Y622727D01*
X1017648Y626000D01*
Y629691D01*
X1018954Y631392D01*
X1020217Y634442D01*
X1020648Y637716D01*
X1020648Y637716D01*
Y856555D01*
X1020882Y856770D01*
X1022152Y856214D01*
Y773000D01*
X1022260Y772178D01*
Y771349D01*
X1022475Y770548D01*
X1022583Y769726D01*
X1022900Y768960D01*
X1023115Y768160D01*
X1023529Y767442D01*
X1023846Y766676D01*
X1024351Y766018D01*
X1024765Y765300D01*
X1025352Y764714D01*
X1025856Y764056D01*
X1026514Y763552D01*
X1027100Y762965D01*
X1027818Y762551D01*
X1028476Y762046D01*
X1029242Y761729D01*
X1029960Y761315D01*
X1030760Y761100D01*
X1031526Y760783D01*
X1032348Y760675D01*
X1033149Y760460D01*
X1033978D01*
X1034800Y760352D01*
X1035622Y760460D01*
X1036451D01*
X1037252Y760675D01*
X1038074Y760783D01*
X1038839Y761100D01*
X1039640Y761315D01*
X1040358Y761729D01*
X1041124Y762046D01*
X1041782Y762551D01*
X1042500Y762965D01*
X1043086Y763552D01*
X1043744Y764056D01*
X1044248Y764714D01*
X1044835Y765300D01*
X1045249Y766018D01*
X1045754Y766676D01*
X1046071Y767442D01*
X1046485Y768160D01*
X1046700Y768960D01*
X1046813Y769233D01*
X1048187D01*
X1048300Y768960D01*
X1048515Y768160D01*
X1048929Y767442D01*
X1049246Y766676D01*
X1049751Y766018D01*
X1050165Y765300D01*
X1050752Y764714D01*
X1051256Y764056D01*
X1051914Y763552D01*
X1052500Y762965D01*
X1053218Y762551D01*
X1053876Y762046D01*
X1054642Y761729D01*
X1055360Y761315D01*
X1056161Y761100D01*
X1056926Y760783D01*
X1057748Y760675D01*
X1058549Y760460D01*
X1059378D01*
X1060200Y760352D01*
X1061022Y760460D01*
X1061851D01*
X1062652Y760675D01*
X1063474Y760783D01*
X1064240Y761100D01*
X1065040Y761315D01*
X1065758Y761729D01*
X1066524Y762046D01*
X1067182Y762551D01*
X1067900Y762965D01*
X1068486Y763552D01*
X1069144Y764056D01*
X1069648Y764714D01*
X1070235Y765300D01*
X1070649Y766018D01*
X1071154Y766676D01*
X1071471Y767442D01*
X1071885Y768160D01*
X1072100Y768960D01*
X1072213Y769233D01*
X1073587D01*
X1073700Y768960D01*
X1073915Y768160D01*
X1074329Y767442D01*
X1074646Y766676D01*
X1075151Y766018D01*
X1075565Y765300D01*
X1076152Y764714D01*
X1076656Y764056D01*
X1077314Y763552D01*
X1077900Y762965D01*
X1078618Y762551D01*
X1079276Y762046D01*
X1080042Y761729D01*
X1080760Y761315D01*
X1081561Y761100D01*
X1082326Y760783D01*
X1083148Y760675D01*
X1083949Y760460D01*
X1084778D01*
X1085600Y760352D01*
X1086422Y760460D01*
X1087251D01*
X1088052Y760675D01*
X1088874Y760783D01*
X1089640Y761100D01*
X1090440Y761315D01*
X1091158Y761729D01*
X1091924Y762046D01*
X1092582Y762551D01*
X1093300Y762965D01*
X1093886Y763552D01*
X1094544Y764056D01*
X1095048Y764714D01*
X1095635Y765300D01*
X1096049Y766018D01*
X1096554Y766676D01*
X1096645Y766897D01*
X1097789Y767334D01*
X1098244Y767281D01*
X1098460Y767118D01*
Y760460D01*
X1110178D01*
X1111000Y760352D01*
X1111822Y760460D01*
X1123540D01*
Y772178D01*
X1123648Y773000D01*
Y865979D01*
X1124915Y866160D01*
X1126565Y863301D01*
X1128900Y860966D01*
X1131760Y859315D01*
X1134949Y858460D01*
X1135330D01*
Y871000D01*
Y883540D01*
X1134949D01*
X1131760Y882686D01*
X1128900Y881035D01*
X1126565Y878700D01*
X1124915Y875841D01*
X1124591Y874631D01*
X1123273Y874622D01*
X1123100Y875040D01*
X1122885Y875841D01*
X1122471Y876559D01*
X1122154Y877324D01*
X1121649Y877982D01*
X1121235Y878700D01*
X1120648Y879286D01*
X1120144Y879944D01*
X1119486Y880449D01*
X1118900Y881035D01*
X1118182Y881449D01*
X1117524Y881954D01*
X1116758Y882271D01*
X1116040Y882686D01*
X1115240Y882900D01*
X1114474Y883218D01*
X1113652Y883326D01*
X1112851Y883540D01*
X1112022D01*
X1111200Y883649D01*
X1110378Y883540D01*
X1109549D01*
X1108748Y883326D01*
X1107926Y883218D01*
X1107160Y882900D01*
X1106360Y882686D01*
X1105642Y882271D01*
X1104876Y881954D01*
X1104218Y881449D01*
X1103500Y881035D01*
X1102914Y880449D01*
X1102256Y879944D01*
X1102056Y879744D01*
X1101552Y879086D01*
X1101165Y878700D01*
X1100892Y878227D01*
X1100046Y877124D01*
X1099129Y874909D01*
X1097754D01*
X1097700Y875040D01*
X1097485Y875841D01*
X1097071Y876559D01*
X1096754Y877324D01*
X1096249Y877982D01*
X1095835Y878700D01*
X1095248Y879286D01*
X1094744Y879944D01*
X1094086Y880449D01*
X1093500Y881035D01*
X1092782Y881449D01*
X1092124Y881954D01*
X1091358Y882271D01*
X1090640Y882686D01*
X1089840Y882900D01*
X1089074Y883218D01*
X1088251Y883326D01*
X1087451Y883540D01*
X1086622D01*
X1085800Y883649D01*
X1084978Y883540D01*
X1084149D01*
X1083348Y883326D01*
X1082526Y883218D01*
X1081760Y882900D01*
X1080960Y882686D01*
X1080242Y882271D01*
X1079476Y881954D01*
X1078818Y881449D01*
X1078100Y881035D01*
X1077514Y880449D01*
X1076856Y879944D01*
X1076656Y879744D01*
X1076152Y879086D01*
X1075766Y878700D01*
X1075492Y878227D01*
X1074646Y877124D01*
X1073729Y874909D01*
X1072354D01*
X1072300Y875040D01*
X1072085Y875841D01*
X1071671Y876559D01*
X1071354Y877324D01*
X1070849Y877982D01*
X1070434Y878700D01*
X1069848Y879286D01*
X1069344Y879944D01*
X1068686Y880449D01*
X1068100Y881035D01*
X1067382Y881449D01*
X1066724Y881954D01*
X1065958Y882271D01*
X1065240Y882686D01*
X1064440Y882900D01*
X1063674Y883218D01*
X1062851Y883326D01*
X1062051Y883540D01*
X1061222D01*
X1060400Y883649D01*
X1059578Y883540D01*
X1058749D01*
X1057948Y883326D01*
X1057126Y883218D01*
X1056360Y882900D01*
X1055560Y882686D01*
X1054842Y882271D01*
X1054076Y881954D01*
X1053418Y881449D01*
X1052700Y881035D01*
X1052114Y880449D01*
X1051456Y879944D01*
X1051256Y879744D01*
X1050752Y879086D01*
X1050366Y878700D01*
X1050092Y878227D01*
X1049246Y877124D01*
X1048329Y874909D01*
X1046954D01*
X1046900Y875040D01*
X1046685Y875841D01*
X1046271Y876559D01*
X1045954Y877324D01*
X1045449Y877982D01*
X1045034Y878700D01*
X1044448Y879286D01*
X1043944Y879944D01*
X1043286Y880449D01*
X1042700Y881035D01*
X1041982Y881449D01*
X1041324Y881954D01*
X1040558Y882271D01*
X1039840Y882686D01*
X1039040Y882900D01*
X1038274Y883218D01*
X1037451Y883326D01*
X1036651Y883540D01*
X1035822D01*
X1035000Y883649D01*
X1034178Y883540D01*
X1033349D01*
X1032548Y883326D01*
X1031726Y883218D01*
X1030960Y882900D01*
X1030160Y882686D01*
X1029442Y882271D01*
X1028676Y881954D01*
X1028018Y881449D01*
X1027300Y881035D01*
X1026714Y880449D01*
X1026056Y879944D01*
X1025856Y879744D01*
X1025352Y879086D01*
X1024966Y878700D01*
X1024693Y878227D01*
X1023846Y877124D01*
X1023476Y876231D01*
X1022248Y876585D01*
Y924400D01*
X1021817Y927674D01*
X1020554Y930724D01*
X1018544Y933344D01*
X1018543Y933344D01*
X960943Y990944D01*
X958324Y992954D01*
X955273Y994218D01*
X952000Y994649D01*
X951999Y994649D01*
X899540D01*
Y1005730D01*
D02*
G37*
G36*
X899540Y941540D02*
X888270D01*
Y930270D01*
X899540D01*
Y941540D01*
D02*
G37*
G36*
X885730D02*
X874460D01*
Y930270D01*
X885730D01*
Y941540D01*
D02*
G37*
G36*
X899540Y927730D02*
X887000D01*
X874460D01*
Y916460D01*
X880961D01*
X881442Y915271D01*
X880676Y914954D01*
X880018Y914449D01*
X879300Y914035D01*
X878714Y913448D01*
X878056Y912944D01*
X877552Y912286D01*
X876965Y911700D01*
X876551Y910982D01*
X876046Y910324D01*
X875729Y909558D01*
X875315Y908840D01*
X875100Y908039D01*
X874783Y907274D01*
X874675Y906452D01*
X874460Y905651D01*
Y904822D01*
X874352Y904000D01*
X874460Y903178D01*
Y902349D01*
X874675Y901548D01*
X874783Y900726D01*
X875100Y899960D01*
X875315Y899160D01*
X875729Y898442D01*
X876046Y897676D01*
X876551Y897018D01*
X876965Y896300D01*
X877552Y895714D01*
X878056Y895056D01*
X878714Y894552D01*
X879300Y893966D01*
X880018Y893551D01*
X880676Y893046D01*
X881442Y892729D01*
X881926Y892449D01*
X882237Y891598D01*
X882306Y890960D01*
X882045Y890648D01*
X875239D01*
X858944Y906944D01*
X856324Y908954D01*
X853274Y910217D01*
X850000Y910648D01*
X850000Y910648D01*
X828179D01*
X826717Y911040D01*
X823283D01*
X819967Y910151D01*
X816993Y908435D01*
X814565Y906007D01*
X812849Y903033D01*
X811960Y899717D01*
Y896283D01*
X812849Y892967D01*
X814565Y889993D01*
X816993Y887565D01*
X819967Y885849D01*
X823283Y884960D01*
X826717D01*
X828179Y885352D01*
X844761D01*
X861056Y869056D01*
X861056Y869056D01*
X863676Y867046D01*
X866726Y865783D01*
X870000Y865352D01*
X870000Y865352D01*
X886000D01*
X886000Y865352D01*
X889274Y865783D01*
X892324Y867046D01*
X894944Y869056D01*
X895944Y870056D01*
X896448Y870714D01*
X897035Y871300D01*
X897449Y872018D01*
X897954Y872676D01*
X898271Y873442D01*
X898685Y874159D01*
X898900Y874960D01*
X899217Y875726D01*
X899325Y876548D01*
X899540Y877349D01*
Y878178D01*
X899648Y879000D01*
X899540Y879822D01*
Y880651D01*
X899325Y881451D01*
X899217Y882273D01*
X898900Y883039D01*
X898685Y883840D01*
X898271Y884558D01*
X897954Y885324D01*
X897449Y885982D01*
X897035Y886700D01*
X896448Y887286D01*
X895944Y887943D01*
X895286Y888448D01*
X894700Y889034D01*
X893982Y889449D01*
X893324Y889954D01*
X893014Y890082D01*
X893267Y891352D01*
X895761D01*
X911068Y876045D01*
Y836648D01*
X893722D01*
X893324Y836954D01*
X892558Y837271D01*
X893038Y838460D01*
X899540D01*
Y849730D01*
X887000D01*
X874460D01*
Y838460D01*
X880962D01*
X881442Y837271D01*
X880676Y836954D01*
X880018Y836449D01*
X879300Y836034D01*
X878714Y835448D01*
X878056Y834943D01*
X877552Y834286D01*
X876965Y833699D01*
X876551Y832982D01*
X876046Y832324D01*
X875729Y831558D01*
X875315Y830840D01*
X875100Y830039D01*
X874783Y829273D01*
X874675Y828451D01*
X874460Y827651D01*
Y826822D01*
X874405Y826402D01*
X873385Y825922D01*
X873110Y825900D01*
X859648Y839362D01*
Y853821D01*
X860040Y855283D01*
Y858717D01*
X859151Y862033D01*
X857435Y865007D01*
X855007Y867435D01*
X852033Y869151D01*
X848717Y870040D01*
X845283D01*
X841967Y869151D01*
X838993Y867435D01*
X836565Y865007D01*
X834849Y862033D01*
X833960Y858717D01*
Y855283D01*
X834352Y853821D01*
Y834124D01*
X834352Y834123D01*
X834783Y830850D01*
X836046Y827799D01*
X838056Y825180D01*
X854903Y808334D01*
X854007Y807435D01*
X851033Y809151D01*
X847717Y810040D01*
X844283D01*
X840967Y809151D01*
X837993Y807435D01*
X835565Y805007D01*
X833849Y802033D01*
X832960Y798717D01*
Y795283D01*
X833352Y793821D01*
Y757124D01*
X833352Y757123D01*
X833783Y753850D01*
X835046Y750799D01*
X837056Y748180D01*
X870910Y714326D01*
X873530Y712316D01*
X876580Y711052D01*
X879854Y710621D01*
X879854Y710621D01*
X886730D01*
X887552Y710730D01*
X888381D01*
X889182Y710944D01*
X890004Y711052D01*
X890770Y711370D01*
X891570Y711584D01*
X892288Y711999D01*
X893054Y712316D01*
X893712Y712821D01*
X894430Y713235D01*
X895016Y713821D01*
X895674Y714326D01*
X896178Y714984D01*
X896765Y715570D01*
X897179Y716288D01*
X897684Y716945D01*
X898001Y717711D01*
X898415Y718429D01*
X898630Y719230D01*
X898947Y719996D01*
X899055Y720818D01*
X899270Y721619D01*
Y722448D01*
X899378Y723270D01*
X899277Y724040D01*
X899341Y724118D01*
X900540Y724573D01*
X911068Y714045D01*
Y707955D01*
X866056Y662944D01*
X864046Y660324D01*
X862783Y657274D01*
X862352Y654000D01*
X862352Y654000D01*
Y637540D01*
X860460D01*
Y625822D01*
X860352Y625000D01*
X860460Y624178D01*
Y612460D01*
X872178D01*
X873000Y612352D01*
X873822Y612460D01*
X885540D01*
Y620137D01*
X885954Y620676D01*
X887217Y623727D01*
X887648Y627000D01*
Y648761D01*
X932659Y693772D01*
X932659Y693772D01*
X934669Y696392D01*
X935933Y699442D01*
X936364Y702716D01*
X936364Y702716D01*
Y719284D01*
X936364Y719284D01*
X936364Y719285D01*
Y812284D01*
X936364Y812284D01*
X936364Y812284D01*
Y881284D01*
X935933Y884558D01*
X934669Y887608D01*
X932659Y890228D01*
X932659Y890228D01*
X909944Y912944D01*
X907324Y914954D01*
X904274Y916217D01*
X901000Y916648D01*
X901000Y916648D01*
X899540D01*
Y927730D01*
D02*
G37*
G36*
X1267140Y1037340D02*
X1242060D01*
Y1012260D01*
X1248718D01*
X1248881Y1012045D01*
X1248544Y1010383D01*
X1246900Y1009435D01*
X1244566Y1007100D01*
X1242915Y1004240D01*
X1242060Y1001051D01*
Y997749D01*
X1242915Y994560D01*
X1244566Y991700D01*
X1246900Y989365D01*
X1249760Y987715D01*
X1251093Y987357D01*
Y986043D01*
X1249760Y985685D01*
X1246900Y984035D01*
X1244566Y981700D01*
X1242915Y978840D01*
X1242060Y975651D01*
Y972349D01*
X1242915Y969160D01*
X1244566Y966300D01*
X1246900Y963966D01*
X1249760Y962315D01*
X1251093Y961957D01*
Y960643D01*
X1249760Y960285D01*
X1246900Y958634D01*
X1244566Y956300D01*
X1242915Y953440D01*
X1242060Y950251D01*
Y946949D01*
X1242915Y943760D01*
X1244566Y940900D01*
X1246900Y938566D01*
X1249760Y936915D01*
X1251093Y936557D01*
Y935243D01*
X1249760Y934885D01*
X1246900Y933234D01*
X1244566Y930900D01*
X1242915Y928040D01*
X1242060Y924851D01*
Y921549D01*
X1242915Y918360D01*
X1244566Y915500D01*
X1246900Y913166D01*
X1249760Y911515D01*
X1251093Y911157D01*
Y909843D01*
X1249760Y909485D01*
X1246900Y907834D01*
X1244566Y905500D01*
X1242915Y902640D01*
X1242060Y899451D01*
Y896149D01*
X1242915Y892960D01*
X1244566Y890100D01*
X1246900Y887766D01*
X1249760Y886115D01*
X1252949Y885260D01*
X1256251D01*
X1259440Y886115D01*
X1262300Y887766D01*
X1264634Y890100D01*
X1266285Y892960D01*
X1267140Y896149D01*
Y899451D01*
X1266285Y902640D01*
X1264634Y905500D01*
X1262300Y907834D01*
X1259440Y909485D01*
X1258107Y909843D01*
Y911157D01*
X1259440Y911515D01*
X1262300Y913166D01*
X1264634Y915500D01*
X1266285Y918360D01*
X1267140Y921549D01*
Y924851D01*
X1266285Y928040D01*
X1264634Y930900D01*
X1262300Y933234D01*
X1259440Y934885D01*
X1258107Y935243D01*
Y936557D01*
X1259440Y936915D01*
X1262300Y938566D01*
X1264634Y940900D01*
X1266285Y943760D01*
X1267140Y946949D01*
Y950251D01*
X1266285Y953440D01*
X1264634Y956300D01*
X1262300Y958634D01*
X1259440Y960285D01*
X1258107Y960643D01*
Y961957D01*
X1259440Y962315D01*
X1262300Y963966D01*
X1264634Y966300D01*
X1266285Y969160D01*
X1267140Y972349D01*
Y975651D01*
X1266285Y978840D01*
X1264634Y981700D01*
X1262300Y984035D01*
X1259440Y985685D01*
X1258107Y986043D01*
Y987357D01*
X1259440Y987715D01*
X1262300Y989365D01*
X1264634Y991700D01*
X1266285Y994560D01*
X1267140Y997749D01*
Y1001051D01*
X1266285Y1004240D01*
X1264634Y1007100D01*
X1262300Y1009435D01*
X1260656Y1010383D01*
X1260319Y1012045D01*
X1260482Y1012260D01*
X1267140D01*
Y1037340D01*
D02*
G37*
G36*
X1162000Y883649D02*
X1161178Y883540D01*
X1160349D01*
X1159548Y883326D01*
X1158726Y883217D01*
X1157961Y882900D01*
X1157160Y882686D01*
X1156442Y882271D01*
X1155676Y881954D01*
X1155018Y881449D01*
X1154300Y881035D01*
X1153714Y880449D01*
X1153056Y879944D01*
X1152552Y879286D01*
X1151965Y878700D01*
X1151551Y877982D01*
X1151046Y877324D01*
X1150729Y876559D01*
X1150315Y875841D01*
X1150100Y875040D01*
X1149927Y874622D01*
X1148609Y874631D01*
X1148285Y875841D01*
X1146635Y878700D01*
X1144300Y881035D01*
X1141440Y882686D01*
X1138251Y883540D01*
X1137870D01*
Y871000D01*
Y858460D01*
X1138251D01*
X1141440Y859315D01*
X1144300Y860966D01*
X1146635Y863301D01*
X1148082Y865807D01*
X1149352Y865467D01*
Y849239D01*
X1137056Y836944D01*
X1135046Y834324D01*
X1133783Y831274D01*
X1133352Y828000D01*
X1133352Y828000D01*
Y749239D01*
X1122056Y737944D01*
X1120046Y735324D01*
X1118783Y732274D01*
X1118352Y729000D01*
X1118352Y729000D01*
Y625000D01*
X1118460Y624178D01*
Y612460D01*
X1130178D01*
X1131000Y612352D01*
X1131822Y612460D01*
X1143540D01*
Y624178D01*
X1143648Y625000D01*
Y723761D01*
X1154943Y735056D01*
X1154944Y735056D01*
X1156954Y737676D01*
X1158217Y740726D01*
X1158648Y744000D01*
Y822761D01*
X1170944Y835056D01*
X1170944Y835056D01*
X1172954Y837676D01*
X1174217Y840726D01*
X1174648Y844000D01*
X1174648Y844000D01*
Y871000D01*
X1174540Y871822D01*
Y872651D01*
X1174325Y873452D01*
X1174217Y874274D01*
X1173900Y875040D01*
X1173685Y875841D01*
X1173271Y876559D01*
X1172954Y877324D01*
X1172449Y877982D01*
X1172035Y878700D01*
X1171448Y879286D01*
X1170944Y879944D01*
X1170286Y880449D01*
X1169700Y881035D01*
X1168982Y881449D01*
X1168324Y881954D01*
X1167558Y882271D01*
X1166840Y882686D01*
X1166040Y882900D01*
X1165274Y883217D01*
X1164452Y883326D01*
X1163651Y883540D01*
X1162822D01*
X1162000Y883649D01*
D02*
G37*
G36*
X982930Y883540D02*
X971660D01*
Y872270D01*
X982930D01*
Y883540D01*
D02*
G37*
G36*
Y869730D02*
X971660D01*
Y858460D01*
X982930D01*
Y869730D01*
D02*
G37*
G36*
X899540Y863540D02*
X888270D01*
Y852270D01*
X899540D01*
Y863540D01*
D02*
G37*
G36*
X885730D02*
X874460D01*
Y852270D01*
X885730D01*
Y863540D01*
D02*
G37*
G36*
X777051Y1037340D02*
X773749D01*
X770560Y1036485D01*
X767700Y1034835D01*
X765366Y1032500D01*
X763715Y1029640D01*
X762860Y1026451D01*
Y1023149D01*
X763715Y1019960D01*
X765366Y1017100D01*
X767700Y1014765D01*
X770560Y1013115D01*
X771893Y1012757D01*
Y1011443D01*
X770560Y1011085D01*
X767700Y1009435D01*
X765366Y1007100D01*
X763715Y1004240D01*
X762860Y1001051D01*
Y997749D01*
X763715Y994560D01*
X765366Y991700D01*
X767700Y989365D01*
X770560Y987715D01*
X771893Y987357D01*
Y986043D01*
X770560Y985685D01*
X767700Y984035D01*
X765366Y981700D01*
X763715Y978840D01*
X762860Y975651D01*
Y972349D01*
X763715Y969160D01*
X765366Y966300D01*
X767700Y963966D01*
X770560Y962315D01*
X771893Y961957D01*
Y960643D01*
X770560Y960285D01*
X767700Y958634D01*
X765366Y956300D01*
X763715Y953440D01*
X762860Y950251D01*
Y946949D01*
X763715Y943760D01*
X765366Y940900D01*
X767700Y938566D01*
X770560Y936915D01*
X771893Y936557D01*
Y935243D01*
X770560Y934885D01*
X767700Y933234D01*
X765366Y930900D01*
X763715Y928040D01*
X762860Y924851D01*
Y921549D01*
X763715Y918360D01*
X765366Y915500D01*
X767700Y913166D01*
X770560Y911515D01*
X771893Y911157D01*
Y909843D01*
X770560Y909485D01*
X767700Y907834D01*
X765366Y905500D01*
X763715Y902640D01*
X762860Y899451D01*
Y896149D01*
X763715Y892960D01*
X765366Y890100D01*
X767700Y887766D01*
X770560Y886115D01*
X771893Y885757D01*
Y884443D01*
X770560Y884085D01*
X767700Y882434D01*
X765366Y880100D01*
X763715Y877240D01*
X762860Y874051D01*
Y870749D01*
X763715Y867560D01*
X765366Y864700D01*
X767700Y862365D01*
X769344Y861417D01*
X769681Y859755D01*
X769518Y859540D01*
X762860D01*
Y834460D01*
X787940D01*
Y859540D01*
X781282D01*
X781119Y859755D01*
X781456Y861417D01*
X783100Y862365D01*
X785434Y864700D01*
X787085Y867560D01*
X787940Y870749D01*
Y874051D01*
X787085Y877240D01*
X785434Y880100D01*
X783100Y882434D01*
X780240Y884085D01*
X778907Y884443D01*
Y885757D01*
X780240Y886115D01*
X783100Y887766D01*
X785434Y890100D01*
X787085Y892960D01*
X787940Y896149D01*
Y899451D01*
X787085Y902640D01*
X785434Y905500D01*
X783100Y907834D01*
X780240Y909485D01*
X778907Y909843D01*
Y911157D01*
X780240Y911515D01*
X783100Y913166D01*
X785434Y915500D01*
X787085Y918360D01*
X787940Y921549D01*
Y924851D01*
X787085Y928040D01*
X785434Y930900D01*
X783100Y933234D01*
X780240Y934885D01*
X778907Y935243D01*
Y936557D01*
X780240Y936915D01*
X783100Y938566D01*
X785434Y940900D01*
X787085Y943760D01*
X787940Y946949D01*
Y950251D01*
X787085Y953440D01*
X785434Y956300D01*
X783100Y958634D01*
X780240Y960285D01*
X778907Y960643D01*
Y961957D01*
X780240Y962315D01*
X783100Y963966D01*
X785434Y966300D01*
X787085Y969160D01*
X787940Y972349D01*
Y975651D01*
X787085Y978840D01*
X785434Y981700D01*
X783100Y984035D01*
X780240Y985685D01*
X778907Y986043D01*
Y987357D01*
X780240Y987715D01*
X783100Y989365D01*
X785434Y991700D01*
X787085Y994560D01*
X787940Y997749D01*
Y1001051D01*
X787085Y1004240D01*
X785434Y1007100D01*
X783100Y1009435D01*
X780240Y1011085D01*
X778907Y1011443D01*
Y1012757D01*
X780240Y1013115D01*
X783100Y1014765D01*
X785434Y1017100D01*
X787085Y1019960D01*
X787940Y1023149D01*
Y1026451D01*
X787085Y1029640D01*
X785434Y1032500D01*
X783100Y1034835D01*
X780240Y1036485D01*
X777051Y1037340D01*
D02*
G37*
G36*
X1267140Y863140D02*
X1242060D01*
Y838060D01*
X1248718D01*
X1248881Y837844D01*
X1248544Y836183D01*
X1246900Y835235D01*
X1244566Y832900D01*
X1242915Y830040D01*
X1242060Y826851D01*
Y826470D01*
X1254600D01*
X1267140D01*
Y826851D01*
X1266285Y830040D01*
X1264634Y832900D01*
X1262300Y835235D01*
X1260656Y836183D01*
X1260319Y837844D01*
X1260482Y838060D01*
X1267140D01*
Y863140D01*
D02*
G37*
G36*
Y823930D02*
X1254600D01*
X1242060D01*
Y823549D01*
X1242915Y820360D01*
X1244566Y817500D01*
X1246900Y815165D01*
X1249760Y813515D01*
X1251093Y813157D01*
Y811843D01*
X1249760Y811485D01*
X1246900Y809835D01*
X1244566Y807500D01*
X1242915Y804640D01*
X1242060Y801451D01*
Y801070D01*
X1254600D01*
X1267140D01*
Y801451D01*
X1266285Y804640D01*
X1264634Y807500D01*
X1262300Y809835D01*
X1259440Y811485D01*
X1258107Y811843D01*
Y813157D01*
X1259440Y813515D01*
X1262300Y815165D01*
X1264634Y817500D01*
X1266285Y820360D01*
X1267140Y823549D01*
Y823930D01*
D02*
G37*
G36*
Y798530D02*
X1254600D01*
X1242060D01*
Y798149D01*
X1242915Y794960D01*
X1244566Y792100D01*
X1246900Y789765D01*
X1249760Y788115D01*
X1251093Y787757D01*
Y786443D01*
X1249760Y786085D01*
X1246900Y784435D01*
X1244566Y782100D01*
X1242915Y779240D01*
X1242060Y776051D01*
Y772749D01*
X1242915Y769560D01*
X1244566Y766700D01*
X1246900Y764365D01*
X1249760Y762715D01*
X1251093Y762357D01*
Y761043D01*
X1249760Y760685D01*
X1246900Y759035D01*
X1244566Y756700D01*
X1242915Y753840D01*
X1242060Y750651D01*
Y747349D01*
X1242915Y744160D01*
X1244566Y741300D01*
X1246900Y738966D01*
X1249760Y737315D01*
X1251093Y736957D01*
Y735643D01*
X1249760Y735285D01*
X1246900Y733634D01*
X1244566Y731300D01*
X1242915Y728440D01*
X1242060Y725251D01*
Y721949D01*
X1242915Y718760D01*
X1244566Y715900D01*
X1246900Y713566D01*
X1249760Y711915D01*
X1251093Y711557D01*
Y710243D01*
X1249760Y709885D01*
X1246900Y708234D01*
X1244566Y705900D01*
X1242915Y703040D01*
X1242060Y699851D01*
Y696549D01*
X1242915Y693360D01*
X1244566Y690500D01*
X1246900Y688166D01*
X1249760Y686515D01*
X1251093Y686157D01*
Y684843D01*
X1249760Y684485D01*
X1246900Y682834D01*
X1244566Y680500D01*
X1242915Y677640D01*
X1242060Y674451D01*
Y671149D01*
X1242915Y667960D01*
X1244566Y665100D01*
X1246900Y662766D01*
X1249760Y661115D01*
X1252949Y660260D01*
X1256251D01*
X1259440Y661115D01*
X1262300Y662766D01*
X1264634Y665100D01*
X1266285Y667960D01*
X1267140Y671149D01*
Y674451D01*
X1266285Y677640D01*
X1264634Y680500D01*
X1262300Y682834D01*
X1259440Y684485D01*
X1258107Y684843D01*
Y686157D01*
X1259440Y686515D01*
X1262300Y688166D01*
X1264634Y690500D01*
X1266285Y693360D01*
X1267140Y696549D01*
Y699851D01*
X1266285Y703040D01*
X1264634Y705900D01*
X1262300Y708234D01*
X1259440Y709885D01*
X1258107Y710243D01*
Y711557D01*
X1259440Y711915D01*
X1262300Y713566D01*
X1264634Y715900D01*
X1266285Y718760D01*
X1267140Y721949D01*
Y725251D01*
X1266285Y728440D01*
X1264634Y731300D01*
X1262300Y733634D01*
X1259440Y735285D01*
X1258107Y735643D01*
Y736957D01*
X1259440Y737315D01*
X1262300Y738966D01*
X1264634Y741300D01*
X1266285Y744160D01*
X1267140Y747349D01*
Y750651D01*
X1266285Y753840D01*
X1264634Y756700D01*
X1262300Y759035D01*
X1259440Y760685D01*
X1258107Y761043D01*
Y762357D01*
X1259440Y762715D01*
X1262300Y764365D01*
X1264634Y766700D01*
X1266285Y769560D01*
X1267140Y772749D01*
Y776051D01*
X1266285Y779240D01*
X1264634Y782100D01*
X1262300Y784435D01*
X1259440Y786085D01*
X1258107Y786443D01*
Y787757D01*
X1259440Y788115D01*
X1262300Y789765D01*
X1264634Y792100D01*
X1266285Y794960D01*
X1267140Y798149D01*
Y798530D01*
D02*
G37*
G36*
X777051Y818340D02*
X773749D01*
X770560Y817485D01*
X767700Y815835D01*
X765366Y813500D01*
X763715Y810640D01*
X762860Y807451D01*
Y804149D01*
X763715Y800960D01*
X765366Y798100D01*
X767700Y795766D01*
X770560Y794115D01*
X771893Y793757D01*
Y792443D01*
X770560Y792085D01*
X767700Y790434D01*
X765366Y788100D01*
X763715Y785240D01*
X762860Y782051D01*
Y778749D01*
X763715Y775560D01*
X765366Y772700D01*
X767700Y770366D01*
X770560Y768715D01*
X771893Y768357D01*
Y767043D01*
X770560Y766685D01*
X767700Y765034D01*
X765366Y762700D01*
X763715Y759840D01*
X762860Y756651D01*
Y753349D01*
X763715Y750160D01*
X765366Y747300D01*
X767700Y744966D01*
X770560Y743315D01*
X771893Y742957D01*
Y741643D01*
X770560Y741285D01*
X767700Y739634D01*
X765366Y737300D01*
X763715Y734440D01*
X762860Y731251D01*
Y727949D01*
X763715Y724760D01*
X765366Y721900D01*
X767700Y719566D01*
X770560Y717915D01*
X771893Y717557D01*
Y716243D01*
X770560Y715885D01*
X767700Y714234D01*
X765366Y711900D01*
X763715Y709040D01*
X762860Y705851D01*
Y702549D01*
X763715Y699360D01*
X765366Y696500D01*
X767700Y694165D01*
X770560Y692515D01*
X771893Y692157D01*
Y690843D01*
X770560Y690485D01*
X767700Y688835D01*
X765366Y686500D01*
X763715Y683640D01*
X762860Y680451D01*
Y677149D01*
X763715Y673960D01*
X765366Y671100D01*
X767700Y668765D01*
X770560Y667115D01*
X771893Y666757D01*
Y665443D01*
X770560Y665085D01*
X767700Y663435D01*
X765366Y661100D01*
X763715Y658240D01*
X762860Y655051D01*
Y654670D01*
X775400D01*
X787940D01*
Y655051D01*
X787085Y658240D01*
X785434Y661100D01*
X783100Y663435D01*
X780240Y665085D01*
X778907Y665443D01*
Y666757D01*
X780240Y667115D01*
X783100Y668765D01*
X785434Y671100D01*
X787085Y673960D01*
X787940Y677149D01*
Y680451D01*
X787085Y683640D01*
X785434Y686500D01*
X783100Y688835D01*
X780240Y690485D01*
X778907Y690843D01*
Y692157D01*
X780240Y692515D01*
X783100Y694165D01*
X785434Y696500D01*
X787085Y699360D01*
X787940Y702549D01*
Y705851D01*
X787085Y709040D01*
X785434Y711900D01*
X783100Y714234D01*
X780240Y715885D01*
X778907Y716243D01*
Y717557D01*
X780240Y717915D01*
X783100Y719566D01*
X785434Y721900D01*
X787085Y724760D01*
X787940Y727949D01*
Y731251D01*
X787085Y734440D01*
X785434Y737300D01*
X783100Y739634D01*
X780240Y741285D01*
X778907Y741643D01*
Y742957D01*
X780240Y743315D01*
X783100Y744966D01*
X785434Y747300D01*
X787085Y750160D01*
X787940Y753349D01*
Y756651D01*
X787085Y759840D01*
X785434Y762700D01*
X783100Y765034D01*
X780240Y766685D01*
X778907Y767043D01*
Y768357D01*
X780240Y768715D01*
X783100Y770366D01*
X785434Y772700D01*
X787085Y775560D01*
X787940Y778749D01*
Y782051D01*
X787085Y785240D01*
X785434Y788100D01*
X783100Y790434D01*
X780240Y792085D01*
X778907Y792443D01*
Y793757D01*
X780240Y794115D01*
X783100Y795766D01*
X785434Y798100D01*
X787085Y800960D01*
X787940Y804149D01*
Y807451D01*
X787085Y810640D01*
X785434Y813500D01*
X783100Y815835D01*
X780240Y817485D01*
X777051Y818340D01*
D02*
G37*
G36*
X1182651Y637540D02*
X1182270D01*
Y626270D01*
X1193540D01*
Y626651D01*
X1192685Y629841D01*
X1191034Y632700D01*
X1188700Y635035D01*
X1185840Y636686D01*
X1182651Y637540D01*
D02*
G37*
G36*
X1179730D02*
X1179349D01*
X1176160Y636686D01*
X1173300Y635035D01*
X1170965Y632700D01*
X1169315Y629841D01*
X1168460Y626651D01*
Y626270D01*
X1179730D01*
Y637540D01*
D02*
G37*
G36*
X924651D02*
X924270D01*
Y626270D01*
X935540D01*
Y626651D01*
X934685Y629841D01*
X933035Y632700D01*
X930700Y635035D01*
X927840Y636686D01*
X924651Y637540D01*
D02*
G37*
G36*
X921730D02*
X921349D01*
X918160Y636686D01*
X915300Y635035D01*
X912965Y632700D01*
X911315Y629841D01*
X910460Y626651D01*
Y626270D01*
X921730D01*
Y637540D01*
D02*
G37*
G36*
X1054651Y636540D02*
X1054270D01*
Y625270D01*
X1065540D01*
Y625651D01*
X1064685Y628840D01*
X1063035Y631700D01*
X1060700Y634035D01*
X1057840Y635686D01*
X1054651Y636540D01*
D02*
G37*
G36*
X1051730D02*
X1051349D01*
X1048160Y635686D01*
X1045300Y634035D01*
X1042965Y631700D01*
X1041315Y628840D01*
X1040460Y625651D01*
Y625270D01*
X1051730D01*
Y636540D01*
D02*
G37*
G36*
X787940Y652130D02*
X775400D01*
X762860D01*
Y651749D01*
X763715Y648560D01*
X765366Y645700D01*
X767700Y643365D01*
X769344Y642417D01*
X769681Y640755D01*
X769518Y640540D01*
X762860D01*
Y615460D01*
X787940D01*
Y640540D01*
X781282D01*
X781119Y640755D01*
X781456Y642417D01*
X783100Y643365D01*
X785434Y645700D01*
X787085Y648560D01*
X787940Y651749D01*
Y652130D01*
D02*
G37*
G36*
X1193540Y623730D02*
X1182270D01*
Y612460D01*
X1182651D01*
X1185840Y613315D01*
X1188700Y614966D01*
X1191034Y617300D01*
X1192685Y620160D01*
X1193540Y623349D01*
Y623730D01*
D02*
G37*
G36*
X1179730D02*
X1168460D01*
Y623349D01*
X1169315Y620160D01*
X1170965Y617300D01*
X1173300Y614966D01*
X1176160Y613315D01*
X1179349Y612460D01*
X1179730D01*
Y623730D01*
D02*
G37*
G36*
X935540D02*
X924270D01*
Y612460D01*
X924651D01*
X927840Y613315D01*
X930700Y614966D01*
X933035Y617300D01*
X934685Y620160D01*
X935540Y623349D01*
Y623730D01*
D02*
G37*
G36*
X921730D02*
X910460D01*
Y623349D01*
X911315Y620160D01*
X912965Y617300D01*
X915300Y614966D01*
X918160Y613315D01*
X921349Y612460D01*
X921730D01*
Y623730D01*
D02*
G37*
G36*
X1065540Y622730D02*
X1054270D01*
Y611460D01*
X1054651D01*
X1057840Y612315D01*
X1060700Y613966D01*
X1063035Y616301D01*
X1064685Y619160D01*
X1065540Y622349D01*
Y622730D01*
D02*
G37*
G36*
X1051730D02*
X1040460D01*
Y622349D01*
X1041315Y619160D01*
X1042965Y616301D01*
X1045300Y613966D01*
X1048160Y612315D01*
X1051349Y611460D01*
X1051730D01*
Y622730D01*
D02*
G37*
G36*
X1255717Y597040D02*
X1255270D01*
Y585270D01*
X1267040D01*
Y585717D01*
X1266151Y589033D01*
X1264435Y592007D01*
X1262007Y594435D01*
X1259033Y596151D01*
X1255717Y597040D01*
D02*
G37*
G36*
X1252730D02*
X1252283D01*
X1248967Y596151D01*
X1245993Y594435D01*
X1243565Y592007D01*
X1241849Y589033D01*
X1240960Y585717D01*
Y585270D01*
X1252730D01*
Y597040D01*
D02*
G37*
G36*
X775717Y593040D02*
X775270D01*
Y581270D01*
X787040D01*
Y581717D01*
X786151Y585033D01*
X784435Y588007D01*
X782007Y590435D01*
X779033Y592151D01*
X775717Y593040D01*
D02*
G37*
G36*
X772730D02*
X772283D01*
X768967Y592151D01*
X765993Y590435D01*
X763565Y588007D01*
X761849Y585033D01*
X760960Y581717D01*
Y581270D01*
X772730D01*
Y593040D01*
D02*
G37*
G36*
X1267040Y582730D02*
X1255270D01*
Y570960D01*
X1255717D01*
X1259033Y571849D01*
X1262007Y573565D01*
X1264435Y575993D01*
X1266151Y578967D01*
X1267040Y582283D01*
Y582730D01*
D02*
G37*
G36*
X1252730D02*
X1240960D01*
Y582283D01*
X1241849Y578967D01*
X1243565Y575993D01*
X1245993Y573565D01*
X1248967Y571849D01*
X1252283Y570960D01*
X1252730D01*
Y582730D01*
D02*
G37*
G36*
X787040Y578730D02*
X775270D01*
Y566960D01*
X775717D01*
X779033Y567849D01*
X782007Y569565D01*
X784435Y571993D01*
X786151Y574967D01*
X787040Y578283D01*
Y578730D01*
D02*
G37*
G36*
X772730D02*
X760960D01*
Y578283D01*
X761849Y574967D01*
X763565Y571993D01*
X765993Y569565D01*
X768967Y567849D01*
X772283Y566960D01*
X772730D01*
Y578730D01*
D02*
G37*
%LPD*%
G36*
X911068Y807045D02*
Y751479D01*
X909894Y750993D01*
X903674Y757213D01*
X901054Y759223D01*
X899877Y759711D01*
X899270Y760730D01*
Y772000D01*
X886730D01*
X874190D01*
Y760730D01*
X880692D01*
X881172Y759541D01*
X880406Y759223D01*
X879748Y758719D01*
X879030Y758304D01*
X878444Y757718D01*
X877786Y757213D01*
X877282Y756556D01*
X876695Y755969D01*
X876281Y755252D01*
X875776Y754594D01*
X875459Y753828D01*
X875045Y753110D01*
X874830Y752309D01*
X874513Y751543D01*
X874405Y750722D01*
X874190Y749921D01*
Y749092D01*
X874135Y748672D01*
X873115Y748192D01*
X872840Y748170D01*
X858648Y762363D01*
Y793821D01*
X859040Y795283D01*
Y798717D01*
X858151Y802033D01*
X856435Y805007D01*
X857334Y805903D01*
X871180Y792057D01*
X871180Y792057D01*
X873799Y790046D01*
X876850Y788783D01*
X880123Y788352D01*
X887000D01*
X887822Y788460D01*
X888651D01*
X889452Y788675D01*
X890274Y788783D01*
X891040Y789100D01*
X891840Y789315D01*
X892558Y789729D01*
X893324Y790046D01*
X893982Y790551D01*
X894700Y790966D01*
X895286Y791552D01*
X895944Y792057D01*
X896448Y792714D01*
X897035Y793300D01*
X897449Y794018D01*
X897954Y794676D01*
X898271Y795442D01*
X898685Y796160D01*
X898900Y796961D01*
X899217Y797727D01*
X899325Y798548D01*
X899540Y799349D01*
Y800178D01*
X899648Y801000D01*
X899540Y801822D01*
Y802651D01*
X899325Y803452D01*
X899217Y804274D01*
X898900Y805040D01*
X898685Y805840D01*
X898271Y806558D01*
X897954Y807324D01*
X897449Y807982D01*
X897035Y808700D01*
X896448Y809286D01*
X895944Y809944D01*
X895764Y810082D01*
X896195Y811352D01*
X906761D01*
X911068Y807045D01*
D02*
G37*
%LPC*%
G36*
X899270Y785810D02*
X888000D01*
Y774540D01*
X899270D01*
Y785810D01*
D02*
G37*
G36*
X885460D02*
X874190D01*
Y774540D01*
X885460D01*
Y785810D01*
D02*
G37*
%LPD*%
D10*
X860333Y949000D02*
X868333Y957000D01*
X887000D01*
X830000Y949000D02*
X860333D01*
X1005000Y626000D02*
Y634716D01*
X1008000Y637716D02*
Y861628D01*
X1009600Y863228D01*
X1005000Y634716D02*
X1008000Y637716D01*
X1003000Y624000D02*
X1005000Y626000D01*
X1009600Y863228D02*
Y924400D01*
X1146000Y744000D02*
Y828000D01*
X1131000Y729000D02*
X1146000Y744000D01*
X1131000Y625000D02*
Y729000D01*
X873000Y625000D02*
X875000Y627000D01*
Y654000D01*
X1162000Y933000D02*
Y1005000D01*
X1136600D02*
Y1036600D01*
X1150000Y1050000D01*
X846000Y757123D02*
Y797000D01*
Y757123D02*
X879854Y723270D01*
X880123Y801000D02*
X887000D01*
X847000Y834123D02*
Y857000D01*
Y834123D02*
X880123Y801000D01*
X879854Y723270D02*
X886730D01*
X886000Y878000D02*
X887000Y879000D01*
X870000Y878000D02*
X886000D01*
X850000Y898000D02*
X870000Y878000D01*
X825000Y898000D02*
X850000D01*
X1146000Y828000D02*
X1162000Y844000D01*
Y871000D01*
X887000Y904000D02*
X901000D01*
X923716Y881284D01*
Y812284D02*
Y881284D01*
Y719284D02*
Y812284D01*
Y702716D02*
Y719284D01*
X887000Y826000D02*
X889000Y824000D01*
X912000D01*
X923716Y812284D01*
X886730Y748270D02*
X894730D01*
X923716Y719284D01*
X875000Y654000D02*
X923716Y702716D01*
X887000Y982000D02*
X952000D01*
X1009600Y924400D01*
X1111000Y773000D02*
Y870800D01*
X1111200Y871000D01*
X1085600Y773000D02*
Y870800D01*
X1085800Y871000D01*
X1060200Y773000D02*
Y870800D01*
X1060400Y871000D01*
X1034800Y870800D02*
X1035000Y871000D01*
X1034800Y773000D02*
Y870800D01*
D11*
X775400Y805800D02*
D03*
Y780400D02*
D03*
Y729600D02*
D03*
Y678800D02*
D03*
Y653400D02*
D03*
Y704200D02*
D03*
Y755000D02*
D03*
X1254600Y672800D02*
D03*
Y698200D02*
D03*
Y749000D02*
D03*
Y799800D02*
D03*
Y825200D02*
D03*
Y774400D02*
D03*
Y723600D02*
D03*
Y948600D02*
D03*
Y999400D02*
D03*
Y974000D02*
D03*
Y923200D02*
D03*
Y897800D02*
D03*
X775400Y1024800D02*
D03*
Y999400D02*
D03*
Y948600D02*
D03*
Y897800D02*
D03*
Y872400D02*
D03*
Y923200D02*
D03*
Y974000D02*
D03*
X1053000Y624000D02*
D03*
X1181000Y625000D02*
D03*
X923000D02*
D03*
X1111200Y1005000D02*
D03*
X1060400D02*
D03*
X1009600D02*
D03*
X1035000D02*
D03*
X1085800D02*
D03*
X1136600D02*
D03*
X1162000D02*
D03*
X1111200Y871000D02*
D03*
X1060400D02*
D03*
X1009600D02*
D03*
X1035000D02*
D03*
X1085800D02*
D03*
X1136600D02*
D03*
X1162000D02*
D03*
X1034800Y773000D02*
D03*
X1060200D02*
D03*
X1085600D02*
D03*
X887000Y982000D02*
D03*
Y957000D02*
D03*
X886730Y748270D02*
D03*
Y723270D02*
D03*
X887000Y904000D02*
D03*
Y879000D02*
D03*
Y826000D02*
D03*
Y801000D02*
D03*
D12*
X775400Y628000D02*
D03*
X1254600Y850600D02*
D03*
Y1024800D02*
D03*
X775400Y847000D02*
D03*
X887000Y1007000D02*
D03*
X886730Y773270D02*
D03*
X887000Y929000D02*
D03*
Y851000D02*
D03*
D13*
X1003000Y624000D02*
D03*
X1131000Y625000D02*
D03*
X873000D02*
D03*
X984200Y1005000D02*
D03*
Y871000D02*
D03*
X1111000Y773000D02*
D03*
D14*
X1254000Y584000D02*
D03*
X774000Y580000D02*
D03*
X1150000Y1050000D02*
D03*
X1162000Y933000D02*
D03*
X830000Y949000D02*
D03*
X846000Y797000D02*
D03*
X847000Y857000D02*
D03*
X825000Y898000D02*
D03*
D15*
X1260000Y1079000D02*
X1281000Y1058000D01*
X750000Y1061000D02*
X768000Y1079000D01*
X1260000D01*
X750000Y551488D02*
Y1061000D01*
X1281000Y551488D02*
Y1058000D01*
X1279512Y550000D02*
X1281000Y551488D01*
X751488Y550000D02*
X1279512D01*
X750000Y551488D02*
X751488Y550000D01*
X1254600Y846600D02*
Y850600D01*
M02*
