M48
;Layer_Color=9474304
;FILE_FORMAT=4:2
METRIC,LZ
;TYPE=PLATED
T1F00S00C0.71
T2F00S00C0.90
T3F00S00C1.10
T4F00S00C1.60
%
T01
X01254Y00584
X00774Y0058
X00846Y00797
X00847Y00857
X00825Y00898
X0083Y00949
X01162Y00933
X0115Y0105
T02
X008867Y007233
Y007483
Y007733
X00887Y00801
Y00826
Y00851
Y00879
Y00904
Y00929
X00887Y00957
Y00982
Y01007
T03
X012546Y006728
Y006982
Y007236
Y00749
Y007744
X01111Y00773
X010856
X010602
X010348
X007754Y007804
Y00755
Y007296
Y007042
Y006788
Y006534
Y00628
Y008058
Y00847
Y008724
Y008978
Y009232
Y009486
Y00974
Y009994
Y010248
X009842Y01005
X010096
X01035
X010604
X010858
X011112
X011366
X01162
Y00871
X011366
X011112
X010858
X010604
X01035
X010096
X009842
X012546Y008506
Y008252
Y007998
Y008978
Y009232
Y009486
Y00974
Y009994
Y010248
T04
X00873Y00625
X00923
X01003Y00624
X01053
X01131Y00625
X01181
M30
